<!-- 白天 阵雪 -->
<svg
  t="1734685757990"
  class="icon"
  viewBox="0 0 1024 1024"
  version="1.1"
  xmlns="http://www.w3.org/2000/svg"
  p-id="2092"
  width="200"
  height="200"
>
  <path
    d="M416 183.9z"
    fill="#1BAFFF"
    p-id="2093"
  ></path>
  <path
    d="M286.8 747.3h406.9l129.4-12.4 78.4-39.8 43.6-80.9V527l-64.7-83.3s-30.5-28.1-53.8-30.9l-12.1-83.1-53.2-94.3-80.3-46.7-96.2-15.7-99.9 35.5s-97.1 52.3-74.7 126.9L338.4 299l-90.5 6.5-71.9 56-31.7 74.7v51.3s-2.8 45.9 41.1 45.8l-74.7 28.9L79 614.5l5.6 54.1 28 43.9 60.7 28 113.5 6.8z"
    fill="#B4D6F2"
    p-id="2094"
  ></path>
  <path
    d="M945.1 614.1V527l-64.7-83.3s-30.5-28.1-53.8-30.9l-12.1-83.1-53.2-94.3-80.3-46.7-29.7-4.9H554S795.9 230 794.8 460c0 0 196.6 26.1 80.7 248.1l26-13.2 43.6-80.8z"
    fill="#64A9D8"
    p-id="2095"
  ></path>
  <path
    d="M432.1 356.1c6-5.7 6.2-15.1 0.5-21.1-33.7-35.6-80.7-55.8-129.7-55.6-98.8 0-179.2 80.4-179.2 179.2 0 11 1 22 3 32.7 1.8 8 9.9 13.1 17.9 11.2 7.6-1.7 12.6-9 11.5-16.7-1.6-9-2.5-18.1-2.5-27.3 0-82.3 67-149.3 149.3-149.3 40.9-0.1 80 16.6 108.1 46.3 5.7 6.1 15.2 6.3 21.1 0.6M427.9 282.6c38.8-57.9 104-92.7 173.7-92.7 115.3 0 209.1 93.8 209.1 209.1 0 19-2.5 37.7-7.5 55.8-2.2 8 2.5 16.2 10.4 18.4 8 2.2 16.2-2.5 18.4-10.4 5.7-20.6 8.6-42.1 8.6-63.7 0-131.8-107.2-238.9-238.9-238.9-79.7 0-154.2 39.7-198.5 105.9-4.6 6.9-2.8 16.1 4.1 20.7 6.7 4.4 16 2.6 20.6-4.2M884.1 431.7c-6.7-4.8-16.1-3.1-20.8 3.6-4.8 6.7-3.2 16.1 3.6 20.8 39.6 28 63.2 73.5 63.3 122.1 0 82.3-67 149.3-149.3 149.3H736c-25.8 0-74.7 15.6-74.7 74.7 0 8.3 6.7 14.9 14.9 14.9 8.3 0 14.9-6.7 14.9-14.9 0-42.2 37.4-44.7 44.8-44.8h44.8c98.8 0 179.2-80.4 179.2-179.2 0.1-58.2-28.3-112.9-75.8-146.5M228.3 727.5h-44.8c-49.4 0-89.6-40.2-89.6-89.6s40.2-89.6 89.6-89.6c8.3 0 14.9-6.7 14.9-14.9 0-8.3-6.7-14.9-14.9-14.9C117.6 518.4 64 572 64 637.9s53.6 119.5 119.5 119.5h44.7c7.5 0.1 44.9 2.6 44.9 44.8V832c0 8.3 6.7 14.9 14.9 14.9 8.3 0 14.9-6.7 14.9-14.9v-29.9c0-59-48.8-74.6-74.6-74.6M616.5 823.1h-41.7l21.1-37.5c4-7.2 1.5-16.3-5.7-20.3s-16.3-1.5-20.3 5.7l-20.6 36.6-20.5-36.6c-4-7.2-13.2-9.7-20.3-5.7-7.2 4-9.7 13.2-5.7 20.3l21.1 37.5h-41.7c-8.3 0-14.9 6.7-14.9 14.9 0 8.3 6.7 14.9 14.9 14.9h41.7l-21.1 37.5c-4.1 7.2-1.5 16.3 5.6 20.3 2.3 1.3 4.8 1.9 7.4 1.9 5.2 0 10.3-2.7 13-7.6l20.6-36.6L570 905c4 7.2 13.1 9.7 20.3 5.7s9.7-13.1 5.7-20.3L574.9 853h41.7c8.3 0 14.9-6.7 14.9-14.9 0-8.3-6.7-15-15-15M425.5 727.5h41.7c8.3 0 14.9-6.7 14.9-14.9 0-8.3-6.7-14.9-14.9-14.9h-41.7l21.1-37.5c4-7.2 1.5-16.3-5.7-20.3s-16.3-1.5-20.3 5.7L400 682.1l-20.6-36.6c-4-7.2-13.1-9.7-20.3-5.7-7.2 4-9.7 13.1-5.7 20.3l21.1 37.5h-41.7c-8.3 0-14.9 6.7-14.9 14.9 0 8.3 6.7 14.9 14.9 14.9h41.7l-21.1 37.5c-4.1 7.2-1.5 16.3 5.6 20.3 2.3 1.3 4.8 1.9 7.4 1.9 5.2 0 10.3-2.7 13-7.6L400 743l20.6 36.6c4 7.2 13.1 9.7 20.3 5.7s9.7-13.1 5.7-20.3l-21.1-37.5"
    fill="#231F1F"
    p-id="2096"
  ></path>
  <path
    d="M731.2 296.8c-6.9 4.5-8.9 13.8-4.4 20.7 15.8 24.2 24.2 52.5 24.1 81.4 0 8.3 6.7 14.9 14.9 14.9 8.3 0 14.9-6.7 14.9-14.9 0-34.7-10-68.7-29-97.7-4.4-6.9-13.6-8.9-20.5-4.4M202.7 443.7c6.6 0 12.4-4.4 14.3-10.7 5.8-19.4 18.1-36.3 34.7-47.9 6.7-4.9 8.1-14.2 3.3-20.9-4.7-6.5-13.7-8.1-20.4-3.6-22.2 15.5-38.4 38-46.2 63.9-2.4 7.9 2.1 16.2 10 18.6 1.5 0.4 2.9 0.6 4.3 0.6"
    fill="#231F1F"
    p-id="2097"
  ></path>
  <path
    d="M593.4 611.4c-7-3.2-44.6-55.5-76.8-104.3-0.8-1.2-2.1-1.9-3.5-1.9-1.6-0.1-2.7 0.7-3.5 1.8L459 579.8c-1.3 1.9-0.9 4.6 1.1 5.9 1.9 1.3 4.6 0.9 5.9-1.1l47-67.6c22.3 33.5 67.2 99.4 78 102.5 0.4 0.1 0.8 0.2 1.2 0.2 1.9 0 3.6-1.2 4.1-3.1 0.6-2.3-0.7-4.6-2.9-5.2zM698.5 413.9h-96.8c-4.1 0-7.4 3.3-7.4 7.4 0 4.1 3.3 7.4 7.4 7.4h41V518c0 4.1 3.3 7.4 7.4 7.4s7.4-3.3 7.4-7.4v-89.4h41c4.1 0 7.4-3.3 7.4-7.4 0-4-3.3-7.3-7.4-7.3zM426.1 413.9h-96.8c-4.1 0-7.4 3.3-7.4 7.4 0 4.1 3.3 7.4 7.4 7.4h41V518c0 4.1 3.3 7.4 7.4 7.4 4.1 0 7.4-3.3 7.4-7.4v-89.4h41c4.1 0 7.4-3.3 7.4-7.4 0-4-3.3-7.3-7.4-7.3z"
    fill="#231815"
    p-id="2098"
  ></path>
  <path
    d="M271.4 477.7c-25.4 0-46 20.6-46 46s20.6 46 46 46 46-20.7 46-46c0-25.4-20.7-46-46-46z m0 81.8c-19.8 0-35.8-16.1-35.8-35.8s16.1-35.8 35.8-35.8 35.8 16.1 35.8 35.8-16.1 35.8-35.8 35.8z"
    fill="#F2A300"
    p-id="2099"
  ></path>
  <path
    d="M754.8 477.7c-25.4 0-46 20.6-46 46s20.7 46 46 46c25.4 0 46-20.7 46-46 0-25.4-20.7-46-46-46z m0 81.8c-19.8 0-35.8-16.1-35.8-35.8s16.1-35.8 35.8-35.8 35.8 16.1 35.8 35.8c0 19.8-16.1 35.8-35.8 35.8z"
    fill="#F2A300"
    p-id="2100"
  ></path>
</svg>