<!-- 白天 晴 -->
<svg
  t="1734680362112"
  class="icon"
  viewBox="0 0 1024 1024"
  version="1.1"
  xmlns="http://www.w3.org/2000/svg"
  p-id="6933"
  width="200"
  height="200"
>
  <path
    d="M512.2 525.2m-187.1 0a187.1 187.1 0 1 0 374.2 0 187.1 187.1 0 1 0-374.2 0Z"
    fill="#FFD46C"
    p-id="6934"
  ></path>
  <path
    d="M512.1 324.8c-4 0-8 0.2-11.9 0.4 97.8 6.1 175.2 87.3 175.2 186.7 0 99.3-77.4 180.5-175.2 186.7 3.9 0.3 7.9 0.4 11.9 0.4 103.3 0 187.1-83.8 187.1-187.1s-83.8-187.1-187.1-187.1z"
    fill="#F49D18"
    p-id="6935"
  ></path>
  <path
    d="M512.1 298.6c-117.6 0-213.3 95.7-213.3 213.3s95.7 213.3 213.3 213.3 213.3-95.7 213.3-213.3-95.7-213.3-213.3-213.3z m0 399.9c-102.9 0-186.6-83.7-186.6-186.6s83.7-186.6 186.6-186.6S698.7 409 698.7 511.9 615 698.5 512.1 698.5zM152.2 498.6c-7.4 0-13.3 6-13.3 13.3 0 7.4 6 13.3 13.3 13.3h106.6c7.4 0 13.3-6 13.3-13.3 0-7.4-6-13.3-13.3-13.3H152.2m613.2 0c-7.4 0-13.3 6-13.3 13.3 0 7.4 6 13.3 13.3 13.3H872c7.4 0 13.3-6 13.3-13.3 0-7.4-6-13.3-13.3-13.3H765.4M512.1 751.8c-7.4 0-13.3 6-13.3 13.3v106.6c0 7.4 6 13.3 13.3 13.3s13.3-6 13.3-13.3V765.2c0-7.4-5.9-13.4-13.3-13.4m0-479.8c7.4 0 13.3-6 13.3-13.3v-93.3c0-7.4-6-13.3-13.3-13.3-7.4 0-13.3 6-13.3 13.3v93.3c0 7.3 5.9 13.3 13.3 13.3m-183.8 72.2c2.5 2.5 5.9 3.9 9.4 3.9 7.4 0 13.3-6 13.3-13.3 0-3.5-1.4-6.9-3.9-9.4L271.8 250c-5.2-5.2-13.6-5.2-18.9 0-5.2 5.2-5.2 13.6 0 18.8l75.4 75.4m377 339.3c-5.2-5.2-13.7-5.2-18.9 0s-5.2 13.7 0 18.9l75.4 75.4c2.5 2.5 5.9 3.9 9.4 3.9 7.3 0 13.3-5.9 13.3-13.3 0-3.5-1.4-7-3.9-9.5l-75.3-75.4m-358.2 0c-5.2-5.2-13.6-5.2-18.9 0l-75.4 75.4c-5.2 5.2-5.2 13.6 0 18.8 5.2 5.2 13.6 5.2 18.8 0l75.4-75.4c5.4-5.1 5.4-13.6 0.1-18.8m339.4-339.3c2.5 2.5 5.9 3.9 9.4 3.9s6.9-1.4 9.4-3.9l66-66c5.2-5.2 5.2-13.6 0-18.9-5.2-5.2-13.6-5.2-18.8 0l-66 66c-5.2 5.2-5.2 13.7 0 18.9m47.3 75.9c2.8 6.8 10.6 10 17.4 7.2l49.3-20.4c6.8-2.8 10-10.6 7.2-17.4s-10.6-10-17.4-7.2L741 402.7c-6.8 2.8-10 10.6-7.2 17.4m110.8-32.6c1.7 0 3.4-0.3 5.1-1l54-22.2c6.8-2.8 10.1-10.6 7.3-17.4s-10.6-10.1-17.4-7.3l-54.1 22.2c-6.8 2.8-10.1 10.6-7.3 17.4 2.1 5.1 7 8.3 12.4 8.3m-240.7-97.3c6.8 2.8 14.5-0.3 17.4-7.1v-0.1l20.4-49.3c2.7-6.9-0.7-14.6-7.5-17.3-6.7-2.6-14.3 0.5-17.1 7.1l-20.4 49.3c-2.8 6.8 0.4 14.6 7.2 17.4m40.9-98.5c6.8 2.8 14.6-0.4 17.4-7.2v-0.1l22.2-54.1c2.8-6.8-0.5-14.6-7.3-17.4s-14.6 0.5-17.4 7.3l-22.2 54.1c-2.8 6.8 0.5 14.6 7.3 17.4m-262.3 42.1l20.4 49.3c2.8 6.8 10.6 10 17.4 7.2 6.8-2.8 10-10.6 7.2-17.4l-20.4-49.3c-2.8-6.8-10.6-10-17.4-7.2-6.8 2.8-10.1 10.6-7.2 17.4m-20.4-49.3c3.1 6.7 11 9.6 17.7 6.6 6.3-2.9 9.4-10.2 7-16.7l-22.3-54.1c-2.8-6.8-10.6-10.1-17.4-7.3-6.8 2.8-10.1 10.6-7.3 17.4l22.3 54.1M223.8 406.9l49.3 20.4c6.7 3 14.6-0.1 17.6-6.8s-0.1-14.6-6.8-17.6c-0.2-0.1-0.4-0.1-0.5-0.2L234 382.3c-6.9-2.5-14.6 1-17.1 7.9-2.5 6.5 0.5 13.8 6.9 16.7m-103.3-42.6l54.1 22.2c6.8 2.8 14.5-0.4 17.4-7.2v-0.1c2.8-6.8-0.4-14.6-7.2-17.4l-54.1-22.2c-6.8-2.8-14.6 0.5-17.4 7.3-2.9 6.8 0.4 14.6 7.2 17.4m170 239.4c-2.8-6.8-10.6-10-17.4-7.2l-49.3 20.4c-6.9 2.7-10.2 10.4-7.5 17.3s10.4 10.2 17.3 7.5c0.1-0.1 0.3-0.1 0.4-0.2l49.3-20.4c6.7-2.8 10-10.6 7.2-17.4m-116 33.6l-54.1 22.2c-6.8 2.8-10.1 10.6-7.3 17.4 2.8 6.8 10.6 10.1 17.4 7.3l54.1-22.3c6.9-2.7 10.3-10.4 7.6-17.2s-10.4-10.3-17.2-7.7c-0.1 0.1-0.3 0.2-0.5 0.3m245.8 96.3c-6.8-2.8-14.6 0.4-17.4 7.2L382.5 790c-2.8 6.8 0.4 14.6 7.2 17.4s14.6-0.4 17.4-7.2l20.4-49.3c2.8-6.7-0.4-14.5-7.2-17.3m-40.9 98.5c-6.8-2.8-14.6 0.5-17.4 7.3l-22.2 54.1c-2.8 6.8 0.5 14.6 7.3 17.4 6.8 2.8 14.6-0.5 17.4-7.3l22.2-54.1c2.8-6.8-0.5-14.6-7.3-17.4M641.8 790l-20.4-49.3c-3-6.7-10.8-9.8-17.6-6.8-6.5 2.9-9.6 10.4-7 17l20.4 49.3c2.8 6.8 10.6 10 17.4 7.2 6.7-2.8 10-10.6 7.2-17.4m20.3 49.3c-3.1-6.7-11-9.7-17.7-6.6-6.4 2.9-9.4 10.3-6.9 16.9l22.3 53.2c2.8 6.8 10.7 10 17.4 7.2s10-10.7 7.2-17.4l-22.3-53.3m138.4-222.4l-49.3-20.4c-6.8-2.8-14.6 0.4-17.4 7.2-2.8 6.8 0.4 14.6 7.2 17.4l49.3 20.4c6.8 2.8 14.5-0.3 17.4-7.1v-0.1c2.8-6.8-0.4-14.6-7.2-17.4m103.2 42.6l-54.1-22.2c-6.8-2.8-14.6 0.5-17.4 7.3s0.5 14.6 7.3 17.4l54.1 22.2c6.8 2.8 14.6-0.5 17.4-7.3 2.8-6.8-0.5-14.6-7.3-17.4"
    fill="#231F1F"
    p-id="6936"
  ></path>
  <path
    d="M556.2 493.1a21.4 40 0 1 0 42.8 0 21.4 40 0 1 0-42.8 0Z"
    fill="#231F1F"
    p-id="6937"
  ></path>
  <path
    d="M424.4 493.1a21.4 40 0 1 0 42.8 0 21.4 40 0 1 0-42.8 0Z"
    fill="#231F1F"
    p-id="6938"
  ></path>
  <path
    d="M498.8 606c-21.9 0-41.4-8-56.4-23.1-2-2-1.9-5.1 0-7.1 2-2 5.1-1.9 7.1 0 32.9 33 77.2 15.4 77.6 15.3 2.5-1 5.5 0.2 6.5 2.7 1 2.6-0.2 5.5-2.7 6.5-0.5 0.2-12.9 5.2-30 5.6-0.7 0.1-1.4 0.1-2.1 0.1z"
    fill="#231F1F"
    p-id="6939"
  ></path>
</svg>