<!-- 白天 下雨 -->
<svg
  t="1734681359408"
  class="icon"
  viewBox="0 0 1024 1024"
  version="1.1"
  xmlns="http://www.w3.org/2000/svg"
  p-id="7439"
  width="200"
  height="200"
>
  <path
    d="M282 746.1h406.8l129.4-12.4 78.4-39.8L940 613v-87.1l-64.7-83.3s-30.5-28.1-53.8-30.9l-12.1-83-53.2-94.2-80.2-46.6-96.1-15.9-99.8 35.5s-97 52.2-74.6 126.9L333.7 298l-90.5 6.5-71.8 56-31.7 74.6v51.3s-2.8 45.9 41 45.8L106.1 561l-31.7 52.2 5.6 54.1 28 43.9 60.6 28 113.4 6.9z"
    fill="#B4D6F2"
    p-id="7440"
  ></path>
  <path
    d="M940 613v-87.1l-64.7-83.3s-30.5-28.1-53.8-30.9l-12.1-83-53.2-94.2-80.2-46.7-29.7-4.9h-97.2S790.9 229.1 789.9 459c0 0 196.5 26.1 80.7 248l26-13.2L940 613z"
    fill="#64A9D8"
    p-id="7441"
  ></path>
  <path
    d="M431.5 334c-33.7-35.6-80.6-55.7-129.7-55.5-98.8 0-179.1 80.4-179.1 179.1 0 11 1 22 3 32.7 1.8 8 9.9 13.1 17.9 11.2 7.6-1.7 12.5-9 11.5-16.7-1.6-9-2.5-18.1-2.5-27.3 0-82.3 67-149.3 149.3-149.3 40.9-0.1 80 16.6 108.1 46.3 6 5.7 15.4 5.4 21.1-0.5 5.2-5.5 5.4-14.2 0.4-20M809.4 397.9c0 18.9-2.5 37.7-7.5 55.7-2.2 7.9 2.5 16.2 10.4 18.4 7.9 2.2 16.2-2.5 18.4-10.4 5.7-20.6 8.6-42.1 8.6-63.7 0-131.7-107.2-238.9-238.9-238.9-79.7 0-154.1 39.7-198.4 105.9-4.7 6.8-3.1 16.1 3.7 20.8 6.8 4.7 16.1 3.1 20.8-3.7 0.1-0.1 0.2-0.3 0.3-0.4 38.8-57.9 103.9-92.7 173.7-92.7 115.2 0 208.9 93.7 208.9 209M882.8 430.6c-6.7-4.8-16.1-3.2-20.8 3.6-4.8 6.7-3.2 16.1 3.6 20.8 39.6 28 63.2 73.5 63.2 122 0 82.3-67 149.3-149.3 149.3H675.1c-25.8 0-74.6 15.6-74.6 74.6 0 8.2 6.7 14.9 14.9 14.9s14.9-6.7 14.9-14.9c0-42.1 37.4-44.7 44.8-44.8h104.5c98.8 0 179.1-80.4 179.1-179.1 0-58.1-28.4-112.8-75.9-146.4M286.9 726.3H182.4c-49.4 0-89.6-40.2-89.6-89.6 0-49.4 40.2-89.6 89.6-89.6 8.2 0 14.9-6.7 14.9-14.9s-6.7-14.9-14.9-14.9C116.6 517.3 63 570.9 63 636.7s53.6 119.4 119.4 119.4h104.4c7.5 0.1 44.9 2.6 44.9 44.8v29.9c0 8.2 6.7 14.9 14.9 14.9s14.9-6.7 14.9-14.9v-29.9c0.1-59-48.8-74.6-74.6-74.6M615.3 850.7c-8.2 0-14.9 6.7-14.9 14.9v29.9c0 8.2 6.7 14.9 14.9 14.9s14.9-6.7 14.9-14.9v-29.9c0.1-8.2-6.6-14.9-14.9-14.9M483.8 815.8c-8.2 0-14.9 6.7-14.9 14.9v29.9c0 8.2 6.7 14.9 14.9 14.9s14.9-6.7 14.9-14.9v-29.9c0-8.2-6.7-14.9-14.9-14.9M483.8 726.3c-8.2 0-14.9 6.7-14.9 14.9v29.9c0 8.2 6.7 14.9 14.9 14.9s14.9-6.7 14.9-14.9v-29.9c0-8.2-6.7-14.9-14.9-14.9"
    fill="#231F1F"
    p-id="7442"
  ></path>
  <path
    d="M344.8 434.7c-1.9-0.9-3-3.2-1.9-5.4 0.9-2.1 3.2-3 5.4-2.1 0 0.2 21.1 9.9 37.4 6.7 16.1-3.4 27.3-17.4 27.5-17.6 1.3-1.7 3.9-1.9 5.6-0.6 1.9 1.5 2.1 4.1 0.9 5.8 0 0-13.3 16.5-32.4 20.4-19.1 3.8-42.3-7.2-42.5-7.2z m-40 40c-3.4-1.3-4.9-5.2-3.7-8.6 1.5-3.2 5.4-4.9 8.6-3.4l90.7 37.2c3.4 1.5 4.9 5.4 3.7 8.6-0.9 1.7-2.1 3-3.9 3.7L308 551.3c-3.4 1.5-7.3-0.2-8.6-3.4-1.5-3.4 0-7.3 3.4-8.6l78-33.1-76-31.5z"
    fill="#231F1F"
    p-id="7443"
  ></path>
  <path
    d="M359.6 607.9c17.8 0 32.2-11 32.2-24.1S377.5 560 359.6 560s-32.2 10.7-32.2 23.8 14.4 24.1 32.2 24.1zM662.2 607.9c17.8 0 32.2-11 32.2-24.1S680 560 662.2 560 630 570.7 630 583.8s14.3 24.1 32.2 24.1z"
    fill="#F2A300"
    p-id="7444"
  ></path>
  <path
    d="M677 434.7c1.9-0.9 3-3.2 1.9-5.4-0.9-2.1-3.2-3-5.4-2.1 0 0.2-21.1 9.9-37.4 6.7-16.1-3.4-27.5-17.4-27.5-17.6-1.3-1.7-3.9-1.9-5.8-0.6-1.7 1.5-1.9 4.1-0.6 5.8 0 0 13.3 16.5 32.4 20.4 19 3.8 42.2-7.2 42.4-7.2z m40 40c3.2-1.3 4.9-5.2 3.4-8.6-1.3-3.2-5.2-4.9-8.4-3.4l-90.7 37.2c-3.4 1.5-4.9 5.4-3.7 8.6 0.9 1.7 2.1 3 3.7 3.7l92.4 39.1c3.4 1.5 7.3-0.2 8.6-3.4 1.5-3.4 0-7.3-3.4-8.6l-78-33.1 76.1-31.5z"
    fill="#231F1F"
    p-id="7445"
  ></path>
  <path
    d="M497.4 524.6c-3.7 0.6-7.1-1.5-7.7-5.2-0.9-3.4 1.5-7.1 4.9-7.7 0.2 0 34.8-7.9 41.9 15.5 3.4 11.6-2.1 19.3-9 24.5 3.7 3.2 6.4 8.8 6.4 17.6 0 27.1-44.5 16.5-44.7 16.5-3.4-0.9-5.6-4.3-4.7-7.9 0.9-3.4 4.3-5.6 7.9-4.7 0 0 28.4 6.7 28.4-3.9 0-11.4-10.7-9.9-10.7-9.9-3.2 0.6-6.4-1.5-7.3-4.7-0.9-3.7 1.3-7.1 4.7-7.9 0-0.2 19.8-4.9 16.3-15.7-3.4-11.7-26.4-6.5-26.4-6.5z"
    fill="#231F1F"
    p-id="7446"
  ></path>
</svg>