<!-- 白天 多云 -->
<svg
  t="1734680414325"
  class="icon"
  viewBox="0 0 1024 1024"
  version="1.1"
  xmlns="http://www.w3.org/2000/svg"
  p-id="7102"
  width="200"
  height="200"
>
  <path
    d="M286.8 794.2h406.8L823 781.8l78.4-39.8 43.5-80.9V574l-64.7-83.3s-30.5-28.1-53.8-30.9l-12.1-83-53.3-94.2-80.2-46.6-96.1-15.9-99.8 35.4s-97 52.3-74.6 126.9L338.4 346l-90.5 6.5-71.8 56-31.7 74.6v51.3s-2.8 45.9 41.1 45.8L110.9 609 79 661.3l5.6 54.1 28 43.8 60.6 28 113.6 7z"
    fill="#B4D6F2"
    p-id="7103"
  ></path>
  <path
    d="M944.8 661.1V574l-64.7-83.3s-30.5-28.1-53.8-30.9l-12.1-83-53.2-94.2-80.2-46.6-29.7-4.9h-97.2s241.8 46.2 240.8 276.1c0 0 196.5 26.1 80.7 248l26-13.2 43.4-80.9z"
    fill="#64A9D8"
    p-id="7104"
  ></path>
  <path
    d="M141.4 556.5c8.2 0 14.9-6.7 14.9-14.9 0-0.9-0.1-1.8-0.3-2.7-1.6-9-2.5-18.1-2.5-27.3 0-82.3 67-149.3 149.3-149.3 40.9-0.1 80 16.6 108.1 46.3 5.9 5.7 15.4 5.6 21.1-0.4 5.4-5.6 5.6-14.4 0.5-20.2-33.7-35.6-80.6-55.7-129.7-55.5-98.8 0-179.1 80.4-179.1 179.1 0 11 1 21.9 3 32.7 1.3 7 7.4 12.2 14.7 12.2m286.4-221c38.8-57.9 103.9-92.7 173.6-92.6 115.2 0 209 93.7 209 209 0 18.9-2.5 37.7-7.5 55.7-2.2 8 2.5 16.2 10.4 18.4 8 2.2 16.2-2.5 18.4-10.4 5.7-20.7 8.6-42.1 8.6-63.7 0-131.7-107.1-238.8-238.8-238.8-79.7 0-154.1 39.7-198.4 105.9-4.6 6.8-2.8 16.1 4.1 20.7 6.7 4.5 16 2.7 20.6-4.2"
    fill="#231F1F"
    p-id="7105"
  ></path>
  <path
    d="M883.8 484.6c-6.9-4.5-16.2-2.5-20.7 4.4-4.2 6.5-2.7 15.2 3.4 20 39.6 28 63.2 73.5 63.3 122 0 82.3-67 149.3-149.3 149.3H183.4c-49.4 0-89.6-40.2-89.6-89.6s40.2-89.6 89.6-89.6c8.2 0 14.9-6.7 14.9-14.9s-6.7-14.9-14.9-14.9C117.6 571.3 64 624.8 64 690.7s53.6 119.4 119.4 119.4h597.1c98.8 0 179.1-80.3 179.1-179.1 0.1-58.1-28.3-112.8-75.8-146.4M730.9 349.8c-6.9 4.5-8.9 13.8-4.4 20.7 15.8 24.2 24.2 52.5 24.1 81.4 0 8.2 6.7 14.9 15 14.9 8.2 0 14.9-6.7 14.9-14.9 0-34.7-10-68.6-29-97.7-4.4-7-13.7-8.9-20.6-4.4m-496.3 63.8c-22.1 15.5-38.4 38-46.2 63.8-2.6 7.8 1.7 16.3 9.5 18.8 7.8 2.6 16.3-1.7 18.8-9.5 0.1-0.3 0.2-0.5 0.2-0.8 5.8-19.4 18.1-36.3 34.7-47.9 6.8-4.7 8.4-14 3.7-20.8-4.7-6.7-13.9-8.3-20.7-3.6"
    fill="#231F1F"
    p-id="7106"
  ></path>
  <path
    d="M627.6 568.9a55.3 28.7 0 1 0 110.6 0 55.3 28.7 0 1 0-110.6 0Z"
    fill="#9372B3"
    opacity=".5"
    p-id="7107"
  ></path>
  <path
    d="M301.7 568.9a55.3 28.7 0 1 0 110.6 0 55.3 28.7 0 1 0-110.6 0Z"
    fill="#9372B3"
    opacity=".5"
    p-id="7108"
  ></path>
  <path
    d="M593.6 529.4c-1.5 0-2.9-0.5-4.1-1.6-2.4-2.2-2.5-6-0.3-8.4 0.3-0.3 29.9-31.3 65.8-3.7l12.1-10.1c2.5-2.1 6.3-1.8 8.4 0.8 2.1 2.5 1.8 6.3-0.8 8.4L658.8 528c-2.3 1.9-5.5 1.8-7.7-0.1-29-25.6-52.2-1.4-53.2-0.4-1.1 1.3-2.7 1.9-4.3 1.9zM446.3 529.4c-1.6 0-3.2-0.6-4.3-1.9-0.1-0.2-6.4-6.6-16-9.7-12.5-4-25-0.6-37.1 10.1-2.2 1.9-5.5 2-7.7 0.1l-15.9-13.2c-2.5-2.1-2.9-5.9-0.8-8.4 2.1-2.5 5.9-2.9 8.4-0.8l12.1 10.1c35.8-27.6 65.5 3.3 65.8 3.7 2.2 2.4 2.1 6.2-0.3 8.4-1.3 1.1-2.7 1.6-4.2 1.6z"
    fill="#231F1F"
    p-id="7109"
  ></path>
  <path
    d="M461.5 635.5c-3.1-2.3-3.6-6.5-1.4-9.7 2.5-2.9 6.8-3.6 9.7-1.1 8.1 6.1 16.2 9.2 24.3 9 7.9-0.2 15.8-3.4 23.2-9.2 1.3-1.6 3.4-2.5 5.4-2.5h0.2c1.8 0 3.8 0.9 5.2 2.5 7.7 5.9 15.5 9 23.2 9.2 8.1 0.2 16.5-2.9 24.3-9 3.2-2.5 7.4-1.8 9.7 1.1 2.3 3.2 1.8 7.4-1.1 9.7-10.6 8.1-21.9 12.2-33.1 11.9-9.7-0.2-19.4-3.6-28.4-9.9-9 6.3-18.5 9.7-28.2 9.9-11.4 0.3-22.6-3.8-33-11.9z"
    fill="#231F1F"
    p-id="7110"
  ></path>
</svg>