<!-- 白天 阴 -->
<svg
  t="1734685449108"
  class="icon"
  viewBox="0 0 1024 1024"
  version="1.1"
  xmlns="http://www.w3.org/2000/svg"
  p-id="1924"
  width="200"
  height="200"
>
  <path
    d="M286.8 794.2h406.8L823 781.8l78.4-39.8 43.5-80.9V574l-64.7-83.3s-30.5-28.1-53.8-30.9l-12.1-83-53.3-94.2-80.2-46.6-96.1-15.9-99.8 35.4s-97 52.3-74.6 126.9L338.4 346l-90.5 6.5-71.8 56-31.7 74.6v51.3s-2.8 45.9 41.1 45.8L110.9 609 79 661.3l5.6 54.1 28 43.8 60.6 28 113.6 7z"
    fill="#D1D6DB"
    p-id="1925"
  ></path>
  <path
    d="M944.8 661.1V574l-64.7-83.3s-30.5-28.1-53.8-30.9l-12.1-83-53.2-94.2-80.2-46.6-29.7-4.9h-97.2s241.8 46.2 240.8 276.1c0 0 196.5 26.1 80.7 248l26-13.2 43.4-80.9z"
    fill="#B8BFC7"
    p-id="1926"
  ></path>
  <path
    d="M141.4 556.5c8.2 0 14.9-6.7 14.9-14.9 0-0.9-0.1-1.8-0.3-2.7-1.6-9-2.5-18.1-2.5-27.3 0-82.3 67-149.3 149.3-149.3 40.9-0.1 80 16.6 108.1 46.3 5.9 5.7 15.4 5.6 21.1-0.4 5.4-5.6 5.6-14.4 0.5-20.2-33.7-35.6-80.6-55.7-129.7-55.5-98.8 0-179.1 80.4-179.1 179.1 0 11 1 21.9 3 32.7 1.3 7 7.4 12.2 14.7 12.2m286.4-221c38.8-57.9 103.9-92.7 173.6-92.6 115.2 0 209 93.7 209 209 0 18.9-2.5 37.7-7.5 55.7-2.2 8 2.5 16.2 10.4 18.4 8 2.2 16.2-2.5 18.4-10.4 5.7-20.7 8.6-42.1 8.6-63.7 0-131.7-107.1-238.8-238.8-238.8-79.7 0-154.1 39.7-198.4 105.9-4.6 6.8-2.8 16.1 4.1 20.7 6.7 4.5 16 2.7 20.6-4.2"
    fill="#231F1F"
    p-id="1927"
  ></path>
  <path
    d="M883.8 484.6c-6.9-4.5-16.2-2.5-20.7 4.4-4.2 6.5-2.7 15.2 3.4 20 39.6 28 63.2 73.5 63.3 122 0 82.3-67 149.3-149.3 149.3H183.4c-49.4 0-89.6-40.2-89.6-89.6s40.2-89.6 89.6-89.6c8.2 0 14.9-6.7 14.9-14.9s-6.7-14.9-14.9-14.9C117.6 571.3 64 624.8 64 690.7s53.6 119.4 119.4 119.4h597.1c98.8 0 179.1-80.3 179.1-179.1 0.1-58.1-28.3-112.8-75.8-146.4M730.9 349.8c-6.9 4.5-8.9 13.8-4.4 20.7 15.8 24.2 24.2 52.5 24.1 81.4 0 8.2 6.7 14.9 15 14.9 8.2 0 14.9-6.7 14.9-14.9 0-34.7-10-68.6-29-97.7-4.4-7-13.7-8.9-20.6-4.4m-496.3 63.8c-22.1 15.5-38.4 38-46.2 63.8-2.6 7.8 1.7 16.3 9.5 18.8 7.8 2.6 16.3-1.7 18.8-9.5 0.1-0.3 0.2-0.5 0.2-0.8 5.8-19.4 18.1-36.3 34.7-47.9 6.8-4.7 8.4-14 3.7-20.8-4.7-6.7-13.9-8.3-20.7-3.6"
    fill="#231F1F"
    p-id="1928"
  ></path>
  <path
    d="M288 565.8c-0.4 32.9 63.2 47.6 77.3 22.6 14.1-25-76.7-70.5-77.3-22.6zM658.7 588.4c14.1 25 77.7 10.4 77.3-22.6-0.6-47.9-91.4-2.4-77.3 22.6z"
    fill="#9372B3"
    opacity=".5"
    p-id="1929"
  ></path>
  <path
    d="M629.5 546.6c-30.1 0-54.2-20.8-54.5-21.2-2.6-2.3-2.9-6.4-0.5-9 2.3-2.6 6.3-2.9 9-0.6 1.9 1.6 45.9 39.6 85.2 0.3 2.5-2.5 6.5-2.5 9 0s2.5 6.5 0 9c-16.2 16.1-33 21.5-48.2 21.5zM385.6 546.6c-15.3 0-32.1-5.3-48.1-21.4-2.5-2.5-2.5-6.5 0-9s6.5-2.5 9 0c16.5 16.5 35.7 21.5 57.1 15 16.5-5.1 28-15.1 28.1-15.2 2.6-2.3 6.7-2.1 9 0.5s2.1 6.7-0.5 9c-0.4 0.2-24.5 21.1-54.6 21.1z"
    fill="#231F1F"
    p-id="1930"
  ></path>
  <path
    d="M492.1 562.6c-2.5-7.7 3.7-13.4 8.9-14.9 5-1.2 24.8-1.2 29.8 0 5.2 1.5 11.4 7.2 8.9 14.9-2.5 8.2-9.9 12.9-18.4 14.4v18.4l1.7 2.5c2 3 5.7 6.7 12.4 9.2 9.4 3.5 8.7 3.2 16.4 3.5 2.7 0 5 1.5 6.2 4 1.2 3.5-0.5 7.4-3.7 8.7 0 0-6.2 2.7-23.3-3.5-7.4-3-12.7-7.2-16.1-10.9-3.5 3.7-8.7 7.9-16.1 10.9-17.1 6.2-23.3 3.5-23.3 3.5-3.5-1.2-5.2-5.2-3.7-8.7 1-2.5 3.5-4.2 6.2-4 7.7 0 7.4-0.2 16.1-3.5 9.4-3.5 13.2-9.4 14.2-11.7v-18.9c-7.5-1.7-14-6.4-16.2-13.9z"
    fill="#231F1F"
    p-id="1931"
  ></path>
</svg>