<svg
  t="1732171798149"
  class="icon"
  viewBox="0 0 1024 1024"
  version="1.1"
  xmlns="http://www.w3.org/2000/svg"
  p-id="2887"
  width="200"
  height="200"
>
  <path
    d="M342.36370489 291.09998933L143.83331555 474.95031467H13.34385778v198.84107851c0.15534459 42.79743525 34.79718875 77.5169517 77.6722963 77.6722963H348.88817778l130.48945777 120.78042074V241.93342578c0-42.71976297-70.52644503-12.34989511-137.01393066 49.16656355z"
    fill="#FFB839"
    p-id="2888"
  ></path>
  <path
    d="M585.01195852 186.70842311v647.78695111l-168.54888297-156.04364325-28.58340503-26.40858075H112.76439703v-282.72715852H387.72432592l28.58340505-26.48625303 168.70422755-156.12131556m80.00246518-169.7916397c-25.63185778 0-72.54592475 27.41832059-117.59585659 69.1283437L348.88817778 269.89545245H91.01615408a77.90531318 77.90531318 0 0 0-77.6722963 77.6722963v326.22364443c0.15534459 42.79743525 34.79718875 77.5169517 77.6722963 77.6722963H348.88817778l198.53038933 183.85032534c45.04993185 41.63235082 91.96399882 69.1283437 117.59585659 69.1283437 12.11687822 0 19.41807408-6.2137837 19.41807408-19.96178015v-947.60201482c0-13.74799645-7.30119585-19.96178015-19.41807408-19.96178014z m295.93144889 543.47305718h-105.40130607a49.71026963 49.71026963 0 0 1 0-99.42053926h105.40130607a49.71026963 49.71026963 0 0 1 0 99.42053926z m-1.55344592 449.10121719a49.55492503 49.55492503 0 0 1-35.18555022-14.52471941l-109.59561008-109.67328237a49.71026963 49.71026963 0 0 1 70.21575585-70.29342815l109.67328237 109.59561007a49.71026963 49.71026963 0 0 1-35.10787792 84.89581986zM855.77758341 217.46665245a49.71026963 49.71026963 0 0 1-35.18555023-84.81814756l103.53717097-103.61484326a49.71026963 49.71026963 0 1 1 70.37110044 70.37110045L891.04080592 202.86426075a49.71026963 49.71026963 0 0 1-35.26322251 14.5247194z"
    fill="#333333"
    p-id="2889"
  ></path>
</svg>