<svg
  t="1732116008447"
  class="icon"
  viewBox="0 0 1024 1024"
  version="1.1"
  xmlns="http://www.w3.org/2000/svg"
  p-id="7180"
  width="256"
  height="256"
>
  <path
    d="M108.875 770.999c-35.625 0-67.5 30-67.5 65.625s31.875 67.5 67.5 67.5 65.625-31.875 65.625-67.5-30-65.625-65.625-65.625z"
    p-id="7181"
    fill="#DEDFE1"
  ></path>
  <path
    d="M108.875 448.499c-35.625 0-67.5 30-67.5 65.625s31.875 65.625 67.5 65.625 65.625-30 65.625-65.625-30-65.625-65.625-65.625z"
    p-id="7182"
    fill="#DEDFE1"
  ></path>
  <path
    d="M348.875 251.624h568.125c33.75 0 61.875-26.25 61.875-60s-28.125-61.875-61.875-61.875h-568.125c-33.75 0-61.875 28.125-61.875 61.875s28.125 60 61.875 60z"
    p-id="7183"
    fill="#DEDFE1"
  ></path>
  <path
    d="M108.875 124.124c-35.625 0-67.5 31.875-67.5 67.5s31.875 65.625 67.5 65.625 65.625-30 65.625-65.625-30-67.5-65.625-67.5z"
    p-id="7184"
    fill="#DEDFE1"
  ></path>
  <path
    d="M917 452.249h-568.125c-33.75 0-61.875 28.125-61.875 61.875s28.125 61.875 61.875 61.875h568.125c33.75 0 61.875-28.125 61.875-61.875s-28.125-61.875-61.875-61.875z"
    p-id="7185"
    fill="#DEDFE1"
  ></path>
  <path
    d="M917 774.749h-568.125c-33.75 0-61.875 28.125-61.875 61.875s28.125 61.875 61.875 61.875h568.125c33.75 0 61.875-28.125 61.875-61.875s-28.125-61.875-61.875-61.875z"
    p-id="7186"
    fill="#DEDFE1"
  ></path>
</svg>