<svg
  t="1731865125986"
  class="icon"
  viewBox="0 0 1024 1024"
  version="1.1"
  xmlns="http://www.w3.org/2000/svg"
  p-id="2862"
  width="256"
  height="256"
>
  <path
    d="M514.048 163.84c-75.776 0-151.552 4.096-227.328 10.24000001-59.392 6.144-106.49599999 53.248-112.63999999 112.63999999-6.14399999 77.824-10.24 153.6-10.24000001 229.376 0 73.728 4.096 149.504 10.24000001 223.232 4.096 59.392 51.2 106.496 110.59199999 110.59199999C360.448 856.064 436.224 860.16 512 860.16l2.048-696.32z"
    fill="#464B61"
    p-id="2863"
  ></path>
  <path
    d="M512 860.16c75.776 0 151.552-4.096 227.328-10.24000001 59.392-4.096 106.496-51.2 110.59199999-110.59199999 6.144-73.728 10.23999999-149.504 10.24000001-225.28s-4.09600001-153.6-10.24000001-229.376c-6.144-59.392-53.248-106.49599999-112.63999999-112.64-73.728-6.144-149.504-10.23999999-225.28-10.24000001L512 860.16z"
    fill="#D8D8D8"
    p-id="2864"
  ></path>
  <path
    d="M512 163.84l75.776-36.864c30.72-14.336 67.584-2.048 81.92 26.624 4.096 8.192 6.14399999 18.432 6.14399999 26.624L675.84 841.728c0 34.81599999-26.624 61.44-61.44 61.44-10.24 0-18.432-2.048-26.624-6.144L512 860.16l0-696.32z"
    fill="#5A617F"
    p-id="2865"
  ></path>
  <path
    d="M636.928 495.616l-69.632-59.392c-10.24-6.14399999-22.528-4.096-30.72 4.096-2.048 4.096-4.096 8.192-4.096 12.288l0 116.736c0 12.288 8.192 20.48 20.48 20.48 4.09600001 0 10.24-2.048 12.288-4.096L634.88 526.336c8.192-8.192 10.24-20.48 2.048-28.67200001 2.048 0 0 0 0-2.04799999z"
    fill="#43AECD"
    p-id="2866"
  ></path>
  <path
    d="M552.96 512c0-12.288-8.192-20.48-20.48-20.48l-143.36 0c-12.288 0-20.48 8.192-20.48 20.48s8.192 20.48 20.48 20.48l143.36 0c12.288 0 20.48-8.192 20.48-20.48z"
    fill="#43AECD"
    p-id="2867"
  ></path>
</svg>