<svg
  t="1733753586436"
  class="icon"
  viewBox="0 0 1024 1024"
  version="1.1"
  xmlns="http://www.w3.org/2000/svg"
  p-id="5250"
  width="256"
  height="256"
>
  <path
    d="M0 0m277.333333 0l469.333334 0q277.333333 0 277.333333 277.333333l0 469.333334q0 277.333333-277.333333 277.333333l-469.333334 0q-277.333333 0-277.333333-277.333333l0-469.333334q0-277.333333 277.333333-277.333333Z"
    fill="#81B0FF"
    p-id="5251"
  ></path>
  <path
    d="M890.133333 804.906667L780.053333 694.826667a352.746667 352.746667 0 1 0-64 69.013333l107.733334 107.626667a47.36 47.36 0 0 0 66.56 0 47.36 47.36 0 0 0-0.213334-66.56z m-398.186666-36.373334a242.026667 242.026667 0 0 1-198.933334-104.106666c6.186667-68.693333 60.16-125.866667 133.546667-147.84a126.186667 126.186667 0 0 1 40-231.253334 222.293333 222.293333 0 0 1 25.386667-1.386666 239.466667 239.466667 0 0 1 27.84 1.6 126.293333 126.293333 0 0 1 38.826666 231.04c72.853333 21.333333 126.613333 78.293333 133.333334 146.453333a242.026667 242.026667 0 0 1-200 105.493333z"
    fill="#FFFFFF"
    p-id="5252"
  ></path>
</svg>
