<svg
  t="1734264875408"
  class="icon"
  viewBox="0 0 1024 1024"
  version="1.1"
  xmlns="http://www.w3.org/2000/svg"
  p-id="6333"
  width="256"
  height="256"
>
  <path
    d="M0 0m146.285714 0l731.428572 0q146.285714 0 146.285714 146.285714l0 731.428572q0 146.285714-146.285714 146.285714l-731.428572 0q-146.285714 0-146.285714-146.285714l0-731.428572q0-146.285714 146.285714-146.285714Z"
    fill="#3876FF"
    p-id="6334"
  ></path>
  <path
    d="M226.157714 341.357714L85.357714 706.925714h59.392l34.304-94.208h157.184l34.304 94.208h59.904L289.645714 341.357714h-63.488z m-30.208 225.28l60.928-165.376h2.048l60.416 165.302857H195.949714z m270.336-225.28v365.568h55.808V564.589714h94.72c87.552 0 131.584-37.376 131.584-112.128 0-74.24-43.52-111.177143-130.56-111.177143H466.285714z m55.808 47.542857h91.136c27.062857 0 47.104 5.12 59.904 15.36 12.8 9.289143 19.456 25.6 19.456 48.201143 0 22.528-6.656 38.912-19.017143 49.152-12.726857 10.24-32.694857 15.36-60.342857 15.36H522.093714v-128z m279.04-47.542857v365.568h55.296V341.357714h-55.296z"
    fill="#FFFFFF"
    p-id="6335"
  ></path>
</svg>