<svg
  t="1734487968158"
  class="icon"
  viewBox="0 0 1024 1024"
  version="1.1"
  xmlns="http://www.w3.org/2000/svg"
  p-id="7124"
  width="200"
  height="200"
>
  <path
    d="M89.99822222 5.57511111h843.88977778c46.64888889 0 84.42311111 37.77422222 84.42311111 84.42311111v843.88977778c0 46.64888889-37.77422222 84.42311111-84.42311111 84.42311111H89.99822222c-46.64888889 0-84.42311111-37.77422222-84.42311111-84.42311111V89.88444445c0-46.53511111 37.77422222-84.30933333 84.42311111-84.30933334z"
    fill="#BD5C5C"
    p-id="7125"
  ></path>
  <path
    d="M548.97777778 165.43288889l11.83288889 2.16177778c29.35466667 5.23377778 49.49333333 37.20533333 45.056 71.56622222L535.89333333 777.55733333c-4.43733333 34.24711111-31.85777778 57.91288889-61.21244444 52.67911112l-11.83288889-2.048c-29.35466667-5.23377778-49.49333333-37.20533333-45.056-71.56622223l69.97333333-538.39644444c4.43733333-34.36088889 31.97155555-57.91288889 61.21244445-52.79288889z"
    fill="#FFFFFF"
    p-id="7126"
  ></path>
  <path
    d="M915.34222222 512L733.63911111 690.40355555c-18.54577778 18.432-48.46933333 18.432-66.90133333 0l-9.55733333-9.55733333c-18.432-18.432-18.432-48.46933333 0-66.90133333L794.16888889 476.95644445 656.95288889 339.74044445c-18.432-18.54577778-18.432-48.46933333 0-67.01511112l9.55733333-9.55733333c18.432-18.54577778 48.46933333-18.54577778 66.90133333 0l181.8168889 178.40355555c9.67111111 9.67111111 14.10844445 22.528 13.65333333 35.15733334 0.56888889 12.62933333-3.86844445 25.48622222-13.53955556 35.27111111z m-671.51644444-35.27111111l136.98844444 136.98844444c18.54577778 18.54577778 18.54577778 48.46933333 0 66.90133334l-9.55733333 9.55733333c-18.54577778 18.432-48.46933333 18.432-67.01511111 0L122.53866667 512c-9.67111111-9.67111111-14.22222222-22.528-13.76711112-35.27111111-0.45511111-12.74311111 4.096-25.48622222 13.76711112-35.15733334l181.70311111-178.40355555c18.54577778-18.54577778 48.46933333-18.54577778 67.01511111 0l9.55733333 9.55733333c18.54577778 18.54577778 18.54577778 48.46933333 0 67.01511112L243.82577778 476.72888889z"
    fill="#DEAEAE"
    p-id="7127"
  ></path>
</svg>