<svg
  t="1732172691242"
  class="icon"
  viewBox="0 0 1024 1024"
  version="1.1"
  xmlns="http://www.w3.org/2000/svg"
  p-id="2958"
  width="200"
  height="200"
>
  <path
    d="M836.955114 366.56506267c0-174.238415-141.248187-315.486601-315.486601-315.486601S205.981912 192.33103567 205.981912 366.56506267c0 102.971626 49.349345 194.401059 125.669955 251.980413h-0.021935l0.052644 0.021935a313.845864 313.845864 0 0 0 27.510867 18.565777c36.052353 31.077496 94.671425 107.924547 94.671425 279.113998h99.725247s23.123868-195.568001 141.976429-286.611378a313.012334 313.012334 0 0 0 15.534361-10.958722c0.074579-0.04387 0.135997-0.092127 0.206189-0.13161h-0.026322c76.324998-57.579354 125.674342-149.0044 125.674342-251.980413z"
    fill="#FFD75E"
    p-id="2959"
  ></path>
  <path
    d="M507.552954 76.73801567S241.933364 150.38255667 298.674801 409.50500367s155.738442 152.825475 155.738442 335.605375v208.176234l-75.294053-76.443446v-136.119786l27.037071-48.256982s-177.068028-98.553919-177.068029-207.206707c0-108.657176-67.612419-383.748296 278.464722-408.521676z"
    fill="#FFFFFF"
    p-id="2960"
  ></path>
  <path
    d="M858.890106 366.56506267c0-186.056988-151.368992-337.421593-337.421593-337.421593C335.411525 29.14346967 184.04692 180.51246167 184.04692 366.56506267c0 106.827797 48.985224 205.057078 134.395695 269.493311a21.930605 21.930605 0 0 1 13.209252-39.443503 21.95254 21.95254 0 0 0-21.553323 17.789279 21.934992 21.934992 0 0 0 8.361619 21.680546 338.597309 338.597309 0 0 0 29.419211 19.851167 22.009571 22.009571 0 0 1-3.013868-2.175951c32.516432 28.028533 87.059983 99.400609 87.059983 262.504822a21.934992 21.934992 0 0 0 21.934992 21.934992h99.72086a21.943766 21.943766 0 0 0 21.790221-19.359824c0.21935-1.851313 23.602051-187.566116 133.535844-271.774549-0.403604 0.293929-0.811595 0.596632-1.223973 0.868625a321.891619 321.891619 0 0 0 16.631111-11.739607 21.035657 21.035657 0 0 1-0.824756 0.596631c-0.210576 0.140384-0.342186 0.232511-0.561535 0.368508a21.934992 21.934992 0 0 0-11.63432-40.535865 21.90867 21.90867 0 0 1 20.781211 14.968439 21.943766 21.943766 0 0 1-7.593894 24.475064c85.423632-64.445006 134.408856-162.674287 134.408856-269.502085z m-147.604947 273.919792h0.035096a21.961314 21.961314 0 0 1-21.092688-15.885321 21.943766 21.943766 0 0 1 8.730126-24.176748 22.066602 22.066602 0 0 0-1.070427 0.750177 287.523874 287.523874 0 0 1-14.441999 10.177836 27.738991 27.738991 0 0 0-1.219585 0.873013c-124.766234 95.579534-149.429939 293.095362-150.425788 301.452593a21.948153 21.948153 0 0 1 21.790221-19.355437H453.864868a21.934992 21.934992 0 0 1 21.934992 21.934992c0-180.595175-64.085272-262.803138-102.282867-295.731948a20.978626 20.978626 0 0 0-3.013868-2.180338 295.819688 295.819688 0 0 1-25.598136-17.275999 21.90867 21.90867 0 0 1 8.295814 21.64545 21.956927 21.956927 0 0 1-21.566484 17.776117 21.956927 21.956927 0 0 0 20.811921-14.964051 21.930605 21.930605 0 0 0-7.576347-24.479451C270.54098 544.96235167 227.916904 459.50362367 227.916904 366.56506267c0-161.862692 131.688917-293.551609 293.551609-293.551609s293.551609 131.688917 293.551609 293.551609c0 92.938561-42.628463 178.401676-116.948602 234.471903a21.934992 21.934992 0 0 0 13.213639 39.447889z"
    fill="#6E6E96"
    p-id="2961"
  ></path>
  <path
    d="M482.547064 980.73167467h59.408732c29.182313 0 52.845782-23.663469 52.845782-52.841395 0-29.182313-23.663469-52.850169-52.845782-52.85017H482.547064c-29.1867 0-52.841395 23.667856-52.841396 52.85017 0 29.182313 23.654695 52.841395 52.841396 52.841395z"
    fill="#EEEEFC"
    p-id="2962"
  ></path>
  <path
    d="M482.547064 1002.66666667h59.408732c41.229011 0 74.780774-33.54299 74.780774-74.776387 0-41.233398-33.54299-74.785161-74.780774-74.785162H482.547064c-41.233398 0-74.776387 33.54299-74.776388 74.785162-0.004387 41.233398 33.54299 74.776387 74.776388 74.776387z m0-43.869984a30.937113 30.937113 0 0 1-30.906404-30.906403c0-17.047876 13.867302-30.915178 30.906404-30.915178h59.408732c17.043489 0 30.910791 13.867302 30.91079 30.915178 0 17.043489-13.867302 30.906404-30.91079 30.906403H482.547064z"
    fill="#6E6E96"
    p-id="2963"
  ></path>
  <path
    d="M636.850957 799.84695767c16.13538-9.045991 27.045845-26.282507 27.045845-46.098579 0-29.177926-23.663469-52.841395-52.841395-52.841395H421.967003c-29.182313 0-52.841395 23.663469-52.841395 52.841395 0 19.816072 10.914852 37.048201 27.045844 46.098579-16.130993 9.045991-27.045845 26.286894-27.045844 46.098579 0 29.182313 23.659082 52.841395 52.841395 52.841395h189.088404c29.177926 0 52.841395-23.659082 52.841395-52.841395 0-19.811685-10.910465-37.048201-27.045845-46.098579z"
    fill="#EEEEFC"
    p-id="2964"
  ></path>
  <path
    d="M490.101475 74.69367367s223.039384 12.56875 223.039384 223.043772c0 210.479408-192.931415 175.383421-192.931414 469.312312v213.488889s90.837188-15.946739 90.837188-59.816723 57.952249-28.677808 52.841395-74.776387c-5.110853-46.094192 5.110853-34.674835 0-92.192771s-32.40237-70.420098 26.330765-129.153232c58.737521-58.733134 194.111517-212.896644 93.210554-423.472566s-273.818891-106.928698-293.327872-126.433294z"
    fill="#6E6E96"
    p-id="2965"
  ></path>
  <path
    d="M647.577168 818.97865767a74.886062 74.886062 0 0 0 38.254626-65.225892c0-41.224624-33.54299-74.780774-74.776387-74.780774H421.967003c-41.229011 0-74.776387 33.54299-74.776387 74.780774a74.881675 74.881675 0 0 0 38.250238 65.225892 21.934992 21.934992 0 0 1-0.004387-38.254626 74.886062 74.886062 0 0 0-38.245851 65.221505c0 41.229011 33.54299 74.776387 74.776387 74.776387h189.088404c41.224624 0 74.776387-33.54299 74.776387-74.776387a74.881675 74.881675 0 0 0-38.250239-65.221505 21.934992 21.934992 0 0 1-0.004387 38.254626z m-5.615357 26.966879a30.937113 30.937113 0 0 1-30.906404 30.906404H421.967003a30.937113 30.937113 0 0 1-30.906404-30.906404 30.976596 30.976596 0 0 1 15.841452-26.962492c6.918296-3.882494 11.204394-11.200007 11.204393-19.1317s-4.286097-15.253593-11.20878-19.122926a30.963435 30.963435 0 0 1-15.837065-26.962492 30.937113 30.937113 0 0 1 30.906404-30.906403h189.088404a30.937113 30.937113 0 0 1 30.906404 30.906403 30.98537 30.98537 0 0 1-15.837065 26.962492 21.917444 21.917444 0 0 0 0 38.254626 30.967822 30.967822 0 0 1 15.837065 26.962492z"
    fill="#6E6E96"
    p-id="2966"
  ></path>
  <path
    d="M467.574238 312.67956167c-18.877254 52.433405-25.001504 83.287164-64.89248 68.924132-39.895363-14.363033-56.930078-68.511754-38.048437-120.940771 18.877254-52.433405 66.524443-83.287164 106.41542-68.924132 39.895363 14.363033 15.407138 68.511754-3.474503 120.940771z"
    fill="#FFFFFF"
    p-id="2967"
  ></path>
  <path
    d="M636.859731 777.90757867H520.218219a21.934992 21.934992 0 1 0 0 43.869984h116.641512a21.934992 21.934992 0 0 0 21.934992-21.934992c0-12.121277-9.818102-21.934992-21.934992-21.934992z"
    fill="#6E6E96"
    p-id="2968"
  ></path>
</svg>