<svg
  t="1733556090778"
  class="icon"
  viewBox="0 0 1024 1024"
  version="1.1"
  xmlns="http://www.w3.org/2000/svg"
  p-id="4174"
  width="256"
  height="256"
>
  <path
    d="M11.37777813 102.4a91.02222187 91.02222187 0 0 1 91.02222187-91.02222187h819.2a91.02222187 91.02222187 0 0 1 91.02222187 91.02222187v819.2a91.02222187 91.02222187 0 0 1-91.02222187 91.02222187H102.4a91.02222187 91.02222187 0 0 1-91.02222187-91.02222187V102.4z"
    fill="#67C7B6"
    p-id="4175"
  ></path>
  <path
    d="M254.40711147 285.80977813a45.51111147 45.51111147 0 0 1 55.20497706 33.13208854l67.31093334 269.06168853 93.7528896-203.1616a45.51111147 45.51111147 0 0 1 82.64817706 0l93.7528896 203.1616 67.26542187-269.06168853a45.51111147 45.51111147 0 0 1 88.2915552 22.07288853l-98.57706667 394.3992896a45.51111147 45.51111147 0 0 1-85.46986666 8.05546667L512 512.54613333l-106.58702187 230.92337814a45.51111147 45.51111147 0 0 1-85.46986666-8.05546667L221.32053333 341.0147552a45.51111147 45.51111147 0 0 1 33.13208854-55.20497707z"
    fill="#FFFFFF"
    p-id="4176"
  ></path>
</svg>