<svg
  t="1733275027196"
  class="icon"
  viewBox="0 0 1024 1024"
  version="1.1"
  xmlns="http://www.w3.org/2000/svg"
  p-id="11739"
  width="200"
  height="200"
>
  <path
    d="M428.903405 385.707908c-285.633414-103.482215-252.219939-232.785405-252.219938-232.785405 35.06877-35.076865 122.839852-64.669807 198.918645-69.481898 98.08733-6.216461 178.189016 13.019762 241.389699 50.164732 0 0 184.696873 77.851456 184.696873 375.909698 0 167.095709-106.978974 304.537768-246.999083 374.355582 83.46084-83.468935 159.843172-394.680495-125.786196-498.162709z"
    fill="#C2BED6"
    p-id="11740"
  ></path>
  <path
    d="M171.013375 157.601037s292.023904-72.747969 483.208398 118.436526c0 0-45.583331-70.906504-177.250072-139.267335 0 0 149.709046-2.12072 239.349923 138.6724 0 0-110.66595-334.248079-539.63411-122.512031-0.008094-0.008094-39.973946-29.629367-5.674139 4.67044z"
    fill="#FFFFFF"
    opacity=".21"
    p-id="11741"
  ></path>
  <path
    d="M593.680083 967.335504c-112.183641-21.012932-39.002624-83.464888-39.002624-83.464887s102.523034-68.64818 66.35748-300.361084C582.837702 338.720207 171.013375 386.634711 171.013375 157.601037c0 0-155.626016 99.831663-64.305562 225.014829 31.640813 43.365479 14.484839 101.830967 0 138.870712-28.103582 71.918298-26.492807 108.767825 25.752174 108.767825s26.14475 176.230183 137.753691 193.114997c158.058368 25.323173-21.721188 143.970152-21.721187 143.970152"
    fill="#FFE9D9"
    p-id="11742"
  ></path>
  <path
    d="M248.508679 983.528251a16.192747 16.192747 0 0 1-8.940209-29.698169c58.886395-38.929775 82.060518-76.807285 79.182977-90.142726-2.294748-10.627881-20.919847-19.495241-51.099631-24.335663-75.941189-11.485882-96.233724-84.998767-111.050431-138.676447-6.31764-22.886774-14.9705-54.232143-24.137351-54.232144-24.246625 0-41.503778-7.272773-51.301989-21.620008-14.359376-21.029121-11.226863-53.697916 10.470042-109.229203 21.615961-55.280362 22.271603-95.654978 1.999304-123.438834-26.933949-36.922376-36.857622-75.564802-29.499858-114.866917 14.800519-79.053467 94.744364-131.136561 98.143991-133.313941a16.1887 16.1887 0 0 1 24.930597 13.626838c0 104.065008 93.311664 144.99004 201.350998 192.378411 106.885889 46.878427 228.029974 100.009739 248.476302 231.032978 35.829639 229.563854-60.517406 307.051064-72.323015 315.59465-6.726405 6.010055-19.596421 21.413602-16.941474 31.248237 0.95918 3.561514 7.333481 15.783982 48.889872 23.570747a16.1887 16.1887 0 1 1-5.961488 31.822936c-43.677111-8.17934-67.956113-23.582888-74.225188-47.084832-8.65286-32.442154 23.947134-61.411832 27.694818-64.6091a16.43153 16.43153 0 0 1 1.501502-1.137256c0.117368-0.084991 23.327916-16.540804 42.175609-59.121131 17.657824-39.884908 34.979733-111.35397 17.196446-225.28599-17.710437-113.494925-125.373384-160.713315-229.491004-206.381636-99.050558-43.442375-201.181016-88.244601-218.243906-190.957852-22.109716 19.292883-53.661492 53.204161-61.379454 94.711986-5.60129 30.135264 2.424258 60.311 23.858096 89.689443 40.589117 55.628419 11.542543 129.902172 1.999304 154.310684-20.44228 52.313783-18.835552 71.934486-13.885857 79.178929 3.399627 4.973978 11.663958 7.503462 24.562305 7.503462 33.818193 0 44.276093 37.881557 55.349163 77.993108 13.837291 50.124261 29.520094 106.934455 84.824739 115.299965 46.166124 7.394189 72.282543 24.044266 77.770512 49.50909 11.243052 52.168084-75.491953 112.426471-92.995984 123.981155a16.095615 16.095615 0 0 1-8.899738 2.67923z"
    fill="#6E6E96"
    p-id="11743"
  ></path>
  <path
    d="M193.859677 138.890948S97.848547 304.444683 259.201315 355.799285c161.352768 51.350555 429.599519 129.384134 295.476144 528.071332 0 0 122.333955-58.748791 122.333955-254.603725 0-220.295823-186.093148-294.80836-353.233376-349.433079-0.008094-0.004047-145.941126-61.865115-129.918361-140.942865z"
    fill="#6E6E96"
    opacity=".1"
    p-id="11744"
  ></path>
  <path
    d="M554.681506 900.059316a16.1887 16.1887 0 0 1-11.44541-27.63411c67.085971-67.090018 80.445695-203.382679 64.29342-275.976855-20.389667-91.652322-84.063869-159.256332-184.138363-195.514971-296.075126-107.266323-263.896038-246.193695-262.382395-252.058052a16.164416 16.164416 0 0 1 4.225251-7.394188c37.084263-37.092358 127.081291-68.988143 209.344168-74.19281 96.54131-6.123376 180.742783 11.41708 250.216587 52.131659 11.951307 6.212413 169.390458 92.676258 193.005723 341.197079 0.048566 0.509944 0.072849 1.019888 0.072849 1.529832v47.368135a16.1887 16.1887 0 0 1-32.377399 0v-46.595125c-22.615613-234.68353-174.287539-314.093148-175.821418-314.870206a18.827458 18.827458 0 0 1-0.886332-0.485661c-63.876561-37.537547-141.987036-53.673633-232.16214-47.963069-71.35574 4.516647-150.80583 31.082303-184.810193 61.306605-0.781105 9.037342-0.331868 32.867107 19.600467 64.269137 24.262813 38.225567 82.643311 94.465109 223.003384 145.313814 140.250798 50.808233 188.735953 147.098618 204.718247 218.923831 26.181174 117.675657-17.512126 250.406804-73.006988 305.901666a16.148228 16.148228 0 0 1-11.449458 4.743289z"
    fill="#6E6E96"
    p-id="11745"
  ></path>
  <path
    d="M694.357606 794.990609a16.1887 16.1887 0 0 1-11.967496-27.083694c67.450217-74.107819 103.105827-163.457299 103.105827-258.39188a16.1887 16.1887 0 0 1 32.377399 0c0 103.126063-38.569577 200.01543-111.54014 280.18187a16.160369 16.160369 0 0 1-11.97559 5.293704z"
    fill="#6E6E96"
    p-id="11746"
  ></path>
  <path
    d="M877.472033 248.362981c7.212066-22.105669 29.819585-49.254118 50.257818-60.347425l0.084991-0.040471c20.482752-11.089259 20.482752-29.220603 0-40.285579l-0.084991-0.060708c-20.438233-11.077118-44.215386-36.052234-52.795396-55.462484-8.608341-19.446675-22.672274-19.446675-31.284662 0-8.592152 19.442628-32.365258 44.385367-52.860151 55.462484l-0.089038 0.060708c-20.478705 11.064976-20.478705 29.188225 0 40.285579l0.089038 0.040471c20.490846 11.064976 43.057894 38.237708 50.265912 60.347425l5.139912 15.622095c7.208018 22.093528 18.912448 22.093528 26.17308 0l5.103487-15.622095z"
    fill="#D5FFC2"
    p-id="11747"
  ></path>
  <path
    d="M859.259746 296.746957c-8.855219 0-20.976507-4.812091-28.455686-27.739337l-5.127771-15.589718c-5.892687-18.070636-25.489107-41.70209-42.139185-50.921554l-0.554463-0.291397c-15.152623-8.211718-23.841907-20.753913-23.833812-34.405033 0.008094-13.456856 8.462643-25.816929 23.218642-34.008411l0.720397-0.40067c17.249059-9.324691 38.626237-31.64486 45.753312-47.768805 9.34088-21.081734 23.089133-24.226389 30.450944-24.226389s21.114111 3.144655 30.438802 24.218294c7.131122 16.123945 28.484017 38.448161 45.708793 47.784994l0.853954 0.481614c14.666962 8.191482 23.060802 20.519177 23.068897 33.931514 0.004047 13.655168-8.685237 26.193316-23.845954 34.400987l-0.538275 0.287349c-16.670313 9.288266-36.25864 32.911626-42.122996 50.88513l-5.111582 15.630189c-7.527745 22.927246-19.644987 27.731242-28.484017 27.731243zM798.046226 173.542859l0.433048 0.230689c24.011889 12.967148 49.472666 43.527366 57.963639 69.570936l2.824928 8.5962 2.812786-8.604294c8.470737-25.962627 33.915326-56.51475 57.923167-69.546653l0.550416-0.291397c4.957789-2.780409 6.337876-5.224903 6.439055-5.738894-0.101179-0.388529-1.566257-2.954438-6.872103-5.819837l-0.866095-0.485661c-23.376482-12.959054-49.229835-40.346286-59.125178-62.735258a31.891738 31.891738 0 0 0-0.837765-1.752427 32.523097 32.523097 0 0 0-0.841813 1.764568c-9.915578 22.437538-35.890347 49.897619-59.347772 62.812154l-0.708256 0.396624c-5.305846 2.8654-6.766876 5.431309-6.868055 5.961488 0.097132 0.37234 1.493408 2.841117 6.519998 5.641762z"
    fill="#6E6E96"
    p-id="11748"
  ></path>
  <path
    d="M659.317166 420.991178c5.160148-15.84469 21.365036-35.299459 36.015809-43.24811l0.068802-0.032378c14.679103-7.940557 14.679103-20.936036 0-28.876593l-0.068802-0.044518c-14.650773-7.93651-31.685332-25.82907-37.837038-39.747305-6.171942-13.930376-16.253454-13.930376-22.429443 0-6.155753 13.930376-23.194359 31.806747-37.87751 39.747305l-0.076896 0.044518c-14.675056 7.940557-14.675056 20.9158 0 28.876593l0.076896 0.032378c14.68315 7.932463 30.847567 27.403421 36.023904 43.24811l3.674835 11.206628c5.168242 15.832548 13.558036 15.832548 18.754608 0l3.674835-11.206628z"
    fill="#FFD2A8"
    p-id="11749"
  ></path>
  <path
    d="M646.26098 460.256869c-6.439055 0-18.212287-2.994909-24.756569-23.036519l-3.666741-11.186392c-3.844816-11.769185-17.066936-27.739337-27.929554-33.82224l-0.505896-0.267114c-12.384355-6.71831-19.479053-17.17621-19.475006-28.690422 0.008094-11.441363 7.025896-21.830461 19.2686-28.532583l0.303538-0.165935c11.421128-6.175989 26.088089-21.454074 30.77067-32.049577 8.041736-18.139438 20.879375-20.094223 26.027382-20.094224s17.981598 1.954785 26.01524 20.078035c4.686629 10.61574 19.337402 25.893825 30.746388 32.073861l0.667784 0.37234c12.016062 6.714263 18.884118 17.010276 18.884118 28.342366 0 11.522307-7.102792 21.97616-19.491195 28.674234l-0.416859 0.222594c-10.903089 6.107187-24.161634 22.101622-27.97812 33.830335l-3.682929 11.23091c-6.584754 20.033516-18.353938 23.020331-24.780851 23.020331z m-41.750657-96.954121l0.376388 0.198311c16.540804 8.936162 33.401334 28.067158 41.378316 46.3442 7.944604-18.220381 24.797041-37.351377 41.354033-46.332058l0.420906-0.226642 0.020236-0.012142a9.620135 9.620135 0 0 0-0.360199-0.198311l-0.663737-0.368293c-15.427831-8.543586-31.754134-24.821324-40.746956-40.160116-9.069719 15.456161-25.602428 31.875549-41.175957 40.370569l-0.291397 0.161887-0.360199 0.198312 0.048566 0.024283z"
    fill="#6E6E96"
    p-id="11750"
  ></path>
  <path
    d="M154.654694 238.386695s-57.971733 97.419547 0 155.395327-47.380276 193.709931 20.988649 193.709931S240.216018 792.598729 331.370538 792.598729c91.158567 0 68.368925 174.720587 26.585892 174.720587H267.125684s86.686439-83.901982 60.444557-110.151959-121.038859-46.542511-142.832896-119.262149c-21.78999-72.723685-52.277358-107.646758-52.277358-107.646758s-66.365574-16.443672-33.182787-88.479337 11.23091-108.792108-16.973852-208.158346C54.094539 234.250482 131.492712 203.742878 166.233661 169.001929l-11.578967 69.384766z"
    fill="#6E6E96"
    opacity=".1"
    p-id="11751"
  ></path>
  <path
    d="M698.178139 758.634837c103.599583-130.12072 219.939672-373.687798-71.813071-619.549625 0 0 200.04376 195.814462 100.017833 459.787397-100.017833 263.985076-37.654915-33.89509-73.520979-93.574731l-48.614665 350.088722c0 0.008094 45.579284-36.011762 93.930882-96.751763z"
    fill="#6E6E96"
    opacity=".31"
    p-id="11752"
  ></path>
</svg>