<svg
  t="1734244821808"
  class="icon"
  viewBox="0 0 1024 1024"
  version="1.1"
  xmlns="http://www.w3.org/2000/svg"
  p-id="5797"
  width="256"
  height="256"
>
  <path
    d="M795.64458667 63.70417778c0.00227555 0.20252445 0.01592889 0.40277333 0.01592888 0.60529777 0 37.45678222-31.39015111 67.82065778-70.11328 67.82065778s-70.11328-30.36387555-70.11328-67.82065778c0-0.20252445 0.01365333-0.40277333 0.0159289-0.60529777H86.05013333c-36.84238222 0-66.70791111 28.88931555-66.70791111 64.52679111v172.69532444h985.31555556V128.23096889c0-35.63747555-29.86666667-64.52679111-66.70791111-64.52679111H795.64458667z"
    fill="#F52F57"
    p-id="5798"
  ></path>
  <path
    d="M19.34222222 286.63111111V878.84444445c0 37.70254222 29.86666667 68.26666667 66.70791111 68.26666666h568.39850667c0-39.62652445 31.39015111-71.75054222 70.11328-71.75054222 38.72199111 0 70.11328 32.12401778 70.11328 71.75054222H937.94986667c36.84238222 0 66.70791111-30.56412445 66.70791111-68.26666666V286.63111111H19.34222222z"
    fill="#FFFFFF"
    p-id="5799"
  ></path>
  <path
    d="M579.99018667 545.62474667h-455.11111112c-6.28394667 0-11.37777778-5.09383111-11.37777777-11.37777778V411.35786667c0-6.28394667 5.09383111-11.37777778 11.37777777-11.37777778h455.11111112c6.28394667 0 11.37777778 5.09383111 11.37777778 11.37777778v122.88910222c0 6.28394667-5.09383111 11.37777778-11.37777778 11.37777778z"
    fill="#7353BA"
    p-id="5800"
  ></path>
  <path
    d="M579.99018667 562.69141333h-455.11111112c-15.68426667 0-28.44444445-12.76017778-28.44444444-28.44444444V411.35786667c0-15.68426667 12.76017778-28.44444445 28.44444444-28.44444445h455.11111112c15.68426667 0 28.44444445 12.76017778 28.44444444 28.44444445v122.88910222c0 15.68426667-12.76017778 28.44444445-28.44444444 28.44444444z m-449.42222222-34.13333333h443.73333333v-111.51132445h-443.73333333v111.51132445z"
    fill="#2F195F"
    p-id="5801"
  ></path>
  <path
    d="M814.83889778 637.68462222v-226.32675555c0-6.28394667 5.09383111-11.37777778 11.37777777-11.37777778h79.64444445c6.28394667 0 11.37777778 5.09383111 11.37777778 11.37777778v226.32675555c0 6.28394667-5.09383111 11.37777778-11.37777778 11.37777778h-79.64444445c-6.28280889 0-11.37777778-5.09383111-11.37777777-11.37777778z"
    fill="#7353BA"
    p-id="5802"
  ></path>
  <path
    d="M905.86112 666.12906667h-79.64444445c-15.68426667 0-28.44444445-12.76017778-28.44444444-28.44444445v-226.32675555c0-15.68426667 12.76017778-28.44444445 28.44444444-28.44444445h79.64444445c15.68426667 0 28.44444445 12.76017778 28.44444445 28.44444445v226.32675555c0 15.68426667-12.76017778 28.44444445-28.44444445 28.44444445z m-73.95555555-34.13333334h68.26666666v-214.94897778h-68.26666666v214.94897778z"
    fill="#2F195F"
    p-id="5803"
  ></path>
  <path
    d="M729.69443555 577.21514667c9.42535111 0 17.06666667-7.64131555 17.06666667-17.06666667v-96.56661333c0-9.42535111-7.64131555-17.06666667-17.06666667-17.06666667s-17.06666667 7.64131555-17.06666666 17.06666667v96.56661333c0 9.42648889 7.64131555 17.06666667 17.06666666 17.06666667zM712.62776889 753.28170667c0 9.42535111 7.64131555 17.06666667 17.06666666 17.06666666s17.06666667-7.64131555 17.06666667-17.06666666v-96.56661334c0-9.42535111-7.64131555-17.06666667-17.06666667-17.06666666s-17.06666667 7.64131555-17.06666666 17.06666666v96.56661334zM19.34222222 801.90919111c9.42535111 0 17.06666667-7.64131555 17.06666667-17.06666666V758.89777778c0-9.42535111-7.64131555-17.06666667-17.06666667-17.06666667s-17.06666667 7.64131555-17.06666667 17.06666667v25.94474667c0 9.42535111 7.64131555 17.06666667 17.06666667 17.06666666z"
    fill="#2F195F"
    p-id="5804"
  ></path>
  <path
    d="M936.39111111 39.82222222H802.28693333c-9.42535111 0-17.06666667 7.64131555-17.06666666 17.06666667l0.00113778 0.17976889c-0.05802667 29.36832-23.39043555 53.36746667-52.49479112 54.52117333a17.06666667 17.06666667 0 0 0-3.03217778-0.28444444c-0.88860445 0-1.75559111 0.08874667-2.60778666 0.21959111-28.51498667-1.78631111-51.17838222-25.51125333-51.23299556-54.45632l0.00113778-0.17863111c0-9.42535111-7.64131555-17.06666667-17.06666666-17.06666667H87.60888889c-47.0528 0-85.33333333 38.28053333-85.33333334 85.33333333v577.99111112c0 9.42535111 7.64131555 17.06666667 17.06666667 17.06666666s17.06666667-7.64131555 17.06666667-17.06666666V323.69777778h676.21888v43.31747555c0 9.42535111 7.64131555 17.06666667 17.06666666 17.06666667s17.06666667-7.64131555 17.06666667-17.06666667V323.69777778H987.59111111V898.84444445c0 28.23168-22.96832 51.2-51.2 51.2H816.70030222c-6.88810667-35.25632-34.70791111-63.09546667-69.9392-70.05297778v-30.14314667c0-9.42535111-7.64131555-17.06666667-17.06666667-17.06666667s-17.06666667 7.64131555-17.06666666 17.06666667v30.07488c-35.39057778 6.84714667-63.36170667 34.75228445-70.27256889 70.12010667H87.60888889c-28.23168 0-51.2-22.96832-51.2-51.2v-23.80686222l147.28078222-0.00113778c9.42648889 0 17.06666667-7.64131555 17.06666667-17.06666667s-7.64131555-17.06666667-17.06666667-17.06666667L19.34222222 840.90424889c-9.42535111 0-17.06666667 7.64131555-17.06666667 17.06666666V898.84444445c0 47.0528 38.28053333 85.33333333 85.33333334 85.33333333h570.16775111c9.42535111 0 17.06666667-7.64131555 17.06666667-17.06666667 0-30.15338667 24.53162667-54.68501333 54.68501333-54.68501333S784.21333333 936.95772445 784.21333333 967.11111111c0 9.42535111 7.64131555 17.06666667 17.06666667 17.06666667H936.39111111c47.0528 0 85.33333333-38.28053333 85.33333334-85.33333333V125.15555555c0-47.0528-38.28053333-85.33333333-85.33333334-85.33333333zM746.76110222 289.56444445v-19.11580445c0-9.42535111-7.64131555-17.06666667-17.06666667-17.06666667s-17.06666667 7.64131555-17.06666666 17.06666667V289.56444445H36.40888889V125.15555555c0-28.23168 22.96832-51.2 51.2-51.2h555.74186666c6.82211555 35.06176 34.34382222 62.80192 69.27701334 69.9858489v29.94062222c0 9.42535111 7.64131555 17.06666667 17.06666666 17.06666666s17.06666667-7.64131555 17.06666667-17.06666666v-29.59815112c35.73418667-6.62300445 64.03072-34.70336 70.96206223-70.32945777H936.39111111c28.23168 0 51.2 22.96832 51.2 51.2v164.40888889H746.76110222z"
    fill="#2F195F"
    p-id="5805"
  ></path>
  <path
    d="M591.36796445 875.03644445c9.42535111 0 17.06666667-7.64131555 17.06666666-17.06666667s-7.64131555-17.06666667-17.06666666-17.06666667H241.08145778c-9.42535111 0-17.06666667 7.64131555-17.06666667 17.06666667s7.64131555 17.06666667 17.06666667 17.06666667h350.28650667zM814.83889778 783.44988445h102.4c9.42535111 0 17.06666667-7.64131555 17.06666667-17.06666667s-7.64131555-17.06666667-17.06666667-17.06666667h-102.4c-9.42535111 0-17.06666667 7.64131555-17.06666667 17.06666667s7.64131555 17.06666667 17.06666667 17.06666667zM814.83889778 875.03644445h102.4c9.42535111 0 17.06666667-7.64131555 17.06666667-17.06666667s-7.64131555-17.06666667-17.06666667-17.06666667h-102.4c-9.42535111 0-17.06666667 7.64131555-17.06666667 17.06666667s7.64131555 17.06666667 17.06666667 17.06666667z"
    fill="#2F195F"
    p-id="5806"
  ></path>
  <path
    d="M352.65 184.826H157.733c-5.523 0-10-4.477-10-10s4.477-10 10-10H352.65c5.523 0 10 4.477 10 10s-4.477 10-10 10zM457.302 184.826h-29.476c-5.523 0-10-4.477-10-10s4.477-10 10-10h29.476c5.523 0 10 4.477 10 10s-4.477 10-10 10z"
    fill="#FFFFFF"
    p-id="5807"
  ></path>
  <path
    d="M186.33386667 656.45795555c9.42535111 0 17.06666667-7.64131555 17.06666666-17.06666666s-7.64131555-17.06666667-17.06666666-17.06666667h-72.83143112c-9.42535111 0-17.06666667 7.64131555-17.06666666 17.06666667v145.45009778c0 9.42535111 7.64131555 17.06666667 17.06666666 17.06666666s17.06666667-7.64131555 17.06666667-17.06666666v-55.27210667h55.76476445c9.42535111 0 17.06666667-7.64131555 17.06666666-17.06666667s-7.64131555-17.06666667-17.06666666-17.06666666h-55.76476445v-38.97799112h55.76476445zM331.43011555 695.43594667h-73.6608711c-9.42535111 0-17.06666667 7.64131555-17.06666667 17.06666666s7.64131555 17.06666667 17.06666667 17.06666667h73.6608711c9.42535111 0 17.06666667-7.64131555 17.06666667-17.06666667s-7.64131555-17.06666667-17.06666667-17.06666666zM475.69692445 622.71146667H402.86435555c-9.42535111 0-17.06666667 7.64131555-17.06666666 17.06666666V785.22823111c0 9.42535111 7.64131555 17.06666667 17.06666666 17.06666667h72.8325689c9.42535111 0 17.06666667-7.64131555 17.06666666-17.06666667V639.77813333c0-9.42535111-7.64131555-17.06666667-17.06666666-17.06666666z m-55.76476445 34.13333333h38.69923555v38.59114667h-38.69923555v-38.59114667z m38.69809778 111.31676445H419.93102222v-38.59228445h38.69923556v38.59228445z"
    fill="#2F195F"
    p-id="5808"
  ></path>
</svg>