<svg
  t="1733367437480"
  class="icon"
  viewBox="0 0 1047 1024"
  version="1.1"
  xmlns="http://www.w3.org/2000/svg"
  p-id="9349"
  width="200"
  height="200"
>
  <path
    d="M303.728814 326.870056m69.423728 0l260.338983 0q69.423729 0 69.423729 69.423729l0 260.338983q0 69.423729-69.423729 69.423729l-260.338983 0q-69.423729 0-69.423728-69.423729l0-260.338983q0-69.423729 69.423728-69.423729Z"
    fill="#F2F2F2"
    p-id="9350"
  ></path>
  <path
    d="M66.531073 2.892655a63.638418 63.638418 0 0 0-63.638418 63.638418v80.994351h1041.355933V2.892655z m69.423729 127.276837h-109.920904v-52.067797a57.853107 57.853107 0 0 1 57.853108-57.853107h52.067796z m170.666667 0H164.881356v-109.920904H306.621469z m202.485876 0H335.548023v-109.920904h173.559322z m202.485875 0H538.033898v-109.920904h173.559322z m170.666667 0H740.519774v-109.920904h141.740113z m138.847458 0h-109.920904v-109.920904h109.920904z"
    fill="#333333"
    p-id="9351"
  ></path>
  <path
    d="M980.610169 1021.107345a63.638418 63.638418 0 0 0 63.638419-63.638418v-80.994351H2.892655v144.632769z m-69.423728-127.276837h109.920904v52.067797a57.853107 57.853107 0 0 1-57.853108 57.853107h-52.067796z m-170.666667 0h141.740113v109.920904H740.519774z m-202.485876 0h173.559322v109.920904H538.033898z m-202.485875 0h173.559322v109.920904H335.548023z m-170.666667 0H306.621469v109.920904H164.881356z m-138.847458 0h109.920904v109.920904h-109.920904z"
    fill="#B3B3B3"
    p-id="9352"
  ></path>
  <path
    d="M164.881356 245.875706C75.20904 245.875706 2.892655 316.861469 2.892655 404.39322v373.731074h879.367232c89.440904 0 161.988701-70.985763 161.988701-158.517514V245.875706z m495.164746 279.546215L402.136949 671.096045a15.851751 15.851751 0 0 1-23.777627-13.421921V366.268023A15.851751 15.851751 0 0 1 402.136949 352.903955l257.909153 145.731977a15.331073 15.331073 0 0 1 0 26.785989z"
    fill="#737373"
    p-id="9353"
  ></path>
  <path
    d="M2.892655 169.278192V326.870056s41.480678-104.135593 127.739661-104.135593H1044.248588v-53.456271z"
    fill="#535353"
    p-id="9354"
  ></path>
  <path
    d="M916.508927 801.265537H2.892655v53.456271h1041.355933V697.129944s-41.480678 104.135593-127.739661 104.135593z"
    fill="#939393"
    p-id="9355"
  ></path>
</svg>