<svg
  t="1733685923187"
  class="icon"
  viewBox="0 0 1024 1024"
  version="1.1"
  xmlns="http://www.w3.org/2000/svg"
  p-id="5169"
  width="256"
  height="256"
>
  <path
    d="M921.300094 60.561231l54.633054 105.342423c3.454549 6.397313 5.203148 13.221114 5.203148 20.471402v382.559325c0 99.371597-82.397393 180.40423-183.47494 180.40423h-55.48603v110.886761c36.848524 8.529751 64.186375 41.369292 64.186375 80.179658v49.899042c0 18.338964-15.182956 33.692516-34.289598 33.692516H119.759408A33.777813 33.777813 0 0 1 85.512458 990.304072v-49.899042c0-38.810366 27.295203-71.649907 64.186375-80.179658V104.06296C149.698833 46.487142 197.422789 0 255.510392 0h402.94543c46.401845 0 84.145992 37.104416 84.145992 82.312096v576.611156h55.528678c50.752017 0 91.908065-40.516316 91.908065-90.415359v-112.592711h-81.075282a34.033706 34.033706 0 0 1-34.289598-33.692516V312.188881c0-64.826106 42.947295-120.269487 102.783498-139.887914l-37.275012-71.649907a44.269407 44.269407 0 0 1 19.959617-60.134744c22.561191-11.088676 49.899042-2.558925 61.158314 19.618427v0.426488zM294.150164 334.366233h303.573832c15.609444 0 28.617314-12.368139 28.617314-28.148178V142.873327c0-15.353552-12.581382-28.148178-28.574665-28.148178H294.064866a28.361422 28.361422 0 0 0-28.574665 28.148178v163.344728c0 15.353552 12.538734 28.148178 28.574665 28.148178z"
    fill="#ED1C24"
    p-id="5170"
  ></path>
  <path
    d="M418.172741 734.411547H367.847211c-21.23908 0-31.645376 8.103263-31.645376 23.883302 0 15.780039 10.406296 23.456815 31.645376 23.456815H418.172741v20.471402c0 34.119003 10.406296 51.178505 30.7924 51.178505s29.939425-17.059502 29.939426-51.178505v-20.471402h50.32553c20.812592 0 31.218888-7.676776 31.218888-23.456815 0-15.780039-10.406296-23.883302-31.218888-23.883302h-50.32553v-36.677928h50.32553c20.812592 0 31.218888-8.103263 31.218888-23.883303 0-15.780039-10.406296-23.456815-31.218888-23.456815h-28.233476l64.229024-120.269486c3.881037-7.250288 6.909098-13.647601 8.657697-18.338965a46.91363 46.91363 0 0 0 3.028062-16.206526c0-7.250288-2.132438-13.647601-6.909098-18.765452a23.798005 23.798005 0 0 0-18.253667-7.676776 27.295203 27.295203 0 0 0-13.434358 3.4119 38.00004 38.00004 0 0 0-9.553321 8.956239c-2.558925 3.4119-5.203148 8.103263-7.804722 13.221114-2.558925 5.117851-5.203148 9.809213-7.378234 14.500576l-64.612863 120.695974-71.991097-127.946262a122.401925 122.401925 0 0 0-16.462419-25.162765 23.798005 23.798005 0 0 0-18.253667-7.676776 22.774435 22.774435 0 0 0-18.211018 8.103263c-4.734012 5.117851-6.909098 12.368139-6.909098 20.89789 0 4.691363 0.852975 9.382726 2.558925 13.221114 1.748599 4.264875 5.245797 10.662189 10.448945 20.044914l66.787949 118.990024H368.700186c-21.23908 0-31.688024 7.676776-31.688024 23.456815 0 15.780039 10.448945 23.883302 31.688024 23.883303h50.32553v36.677928H418.172741z"
    fill="#7596FD"
    p-id="5171"
  ></path>
</svg>