<svg
  t="1733560163909"
  class="icon"
  viewBox="0 0 1024 1024"
  version="1.1"
  xmlns="http://www.w3.org/2000/svg"
  p-id="4818"
  width="256"
  height="256"
>
  <path
    d="M163.84 0h696.32C969.362286 0 1024 54.637714 1024 163.84v696.32c0 109.202286-54.637714 163.84-163.84 163.84H163.84C54.637714 1024 0 969.362286 0 860.16V163.84C0 54.637714 54.637714 0 163.84 0z"
    fill="#1677FF"
    p-id="4819"
  ></path>
  <path
    d="M512 184.32a327.68 327.68 0 0 1 293.449143 473.526857l-3.803429 7.460572-52.662857-27.867429a268.068571 268.068571 0 1 0-70.656 84.845714l13.312-13.385143a10.24 10.24 0 0 1 9.728-2.706285l0.219429 0.073143a10.093714 10.093714 0 0 1 4.534857 2.633142l78.994286 78.262858a10.24 10.24 0 0 1 0.073142 14.555428l-32.329142 32.329143a10.24 10.24 0 0 1-14.482286 0l-47.762286-47.323429A327.68 327.68 0 1 1 512 184.32z m0 133.412571c50.176 0 97.426286 19.163429 133.12 52.809143l4.096 3.949715-40.667429 40.740571a136.704 136.704 0 1 0-4.681142 197.997714l3.657142-3.437714 40.228572 41.179429A194.267429 194.267429 0 1 1 512 317.732571z m0 126.025143a68.022857 68.022857 0 0 1 43.154286 15.36l2.998857 2.633143-25.161143 27.428572a31.012571 31.012571 0 1 0-1.316571 46.811428l1.974857-1.755428 26.038857 26.624A68.242286 68.242286 0 1 1 512 443.757714z"
    fill="#FFFFFF"
    p-id="4820"
  ></path>
</svg>