<svg
  t="1733275141409"
  class="icon"
  viewBox="0 0 1024 1024"
  version="1.1"
  xmlns="http://www.w3.org/2000/svg"
  p-id="17285"
  width="200"
  height="200"
>
  <path
    d="M780.8 939.7248H255.1808c-90.2656 0-163.4816-73.216-163.4816-163.4816V262.1952c0-90.2656 73.216-163.4816 163.4816-163.4816H780.8c90.2656 0 163.4816 73.216 163.4816 163.4816v514.048c0 90.3168-73.1648 163.4816-163.4816 163.4816z"
    fill="#4F44E0"
    p-id="17286"
  ></path>
  <path
    d="M749.1072 870.656H286.9248c-89.9584 0-162.8672-72.9088-162.8672-162.8672V284.4672c0-89.9584 72.9088-162.8672 162.8672-162.8672h462.1824c89.9584 0 162.8672 72.9088 162.8672 162.8672v423.3216c0 89.9584-72.9088 162.8672-162.8672 162.8672z"
    fill="#634FED"
    p-id="17287"
  ></path>
  <path
    d="M727.9616 819.3536H308.0192c-81.2032 0-147.0464-65.8432-147.0464-147.0464v-375.296c0-81.2032 65.8432-147.0464 147.0464-147.0464h419.9424c81.2032 0 147.0464 65.8432 147.0464 147.0464v375.296c0.0512 81.2032-65.792 147.0464-147.0464 147.0464z"
    fill="#756AF6"
    p-id="17288"
  ></path>
  <path
    d="M355.9936 213.6064c63.8464-3.3792 202.24-19.3536 282.5216 6.912s164.608 49.8176 167.3728 146.6368-4.1472 175.6672 0 210.2784c4.1472 34.56 7.8336 148.0192-59.7504 161.8432-67.5328 13.824-204.4928 5.5296-272.2816 20.736-67.7888 15.2064-251.7504 9.6768-253.1328-81.6128s35.9424-195.072 16.5888-242.0736S231.0656 220.16 355.9936 213.6064z"
    fill="#7F73F4"
    p-id="17289"
  ></path>
  <path
    d="M705.1776 398.592l-224.256-129.4848c-43.6224-25.1904-95.6416-25.1904-139.3152 0-43.6224 25.1904-69.632 70.2976-69.632 120.6272v258.9184c0 50.3296 26.0608 95.4368 69.632 120.6272 21.3504 12.3392 45.4144 18.8416 69.632 18.8416s48.2816-6.5024 69.632-18.8416l224.2048-129.4336c43.6224-25.1904 69.632-70.2464 69.632-120.6272 0.1024-50.3296-25.9072-95.4368-69.5296-120.6272z m-126.976 120.6272l-138.24 79.8208V439.3984l138.24 79.8208z"
    fill="#634FED"
    p-id="17290"
  ></path>
  <path
    d="M411.2896 758.3232c-18.7904 0-37.5808-4.9664-54.7328-14.848-34.304-19.8144-54.7328-55.2448-54.7328-94.8224V389.7344c0-39.5776 20.48-75.008 54.7328-94.8224 34.304-19.7632 75.2128-19.7632 109.4656 0l224.256 129.4848c34.304 19.8144 54.7328 55.2448 54.7328 94.8224s-20.48 75.008-54.7328 94.8224l-224.2048 129.4848c-17.152 9.8816-35.9424 14.7968-54.784 14.7968z m-1.0752-369.1008s-0.0512 0.1536-0.0512 0.512v258.9184c0 0.4096 0.0512 0.5632 0.0512 0.5632 0.1536 0.256 0.8192 0.6656 1.1776 0.6656 0 0 0.1536-0.0512 0.512-0.256l224.2048-129.4848c0.3584-0.2048 0.4608-0.3072 0.4608-0.3072 0.1536-0.256 0.1536-1.024 0-1.3312 0 0-0.1024-0.1024-0.4608-0.3072l-224.256-129.4336a3.38944 3.38944 0 0 0-0.512-0.256c-0.256 0.0512-0.9728 0.4096-1.1264 0.7168z"
    fill="#F7BC00"
    p-id="17291"
  ></path>
  <path
    d="M411.2896 736.6144c-15.104 0-30.1568-3.9936-43.9296-11.9296-27.4944-15.872-43.9296-44.288-43.9296-76.032V389.7344c0-31.744 16.4352-60.16 43.9296-76.032 27.4944-15.872 60.3136-15.872 87.808 0l224.2048 129.4848c27.4944 15.872 43.9296 44.288 43.9296 76.0832 0 31.744-16.4352 60.16-43.9296 76.032L455.168 724.7872c-13.7216 7.8848-28.7744 11.8272-43.8784 11.8272z m0.1536-369.7664c-5.2736 0-9.4208 1.9456-11.52 3.1232-3.4304 1.9968-11.4176 7.8848-11.4176 19.7632v258.9184c0 11.8784 7.9872 17.7664 11.4176 19.7632 3.4304 1.9968 12.4928 5.9392 22.784 0l224.2048-129.4848c10.2912-5.9392 11.4176-15.7696 11.4176-19.7632 0-3.9424-1.1264-13.824-11.4176-19.7632L422.7072 370.0224c-4.0448-2.3552-7.8848-3.1744-11.264-3.1744z"
    fill="#FFD029"
    p-id="17292"
  ></path>
  <path
    d="M411.2896 720.3328c-12.288 0-24.576-3.2256-35.7888-9.6768-22.4256-12.9536-35.7888-36.096-35.7888-61.952V389.7344c0-25.856 13.3632-49.0496 35.7888-61.952 22.4256-12.9536 49.152-12.9536 71.5776 0l224.2048 129.4848c22.4256 12.9536 35.7888 36.096 35.7888 62.0032 0 25.856-13.3632 49.0496-35.7888 61.952L447.0784 710.656a71.60832 71.60832 0 0 1-35.7888 9.6768z m0-369.7152c-6.7072 0-13.4144 1.792-19.5584 5.2736-12.2368 7.0656-19.5072 19.712-19.5072 33.8432v258.9184c0 14.1312 7.3216 26.7776 19.5072 33.8432a38.65088 38.65088 0 0 0 39.0656 0l224.2048-129.4848c12.2368-7.0656 19.5072-19.712 19.5072-33.8432s-7.3216-26.7776-19.5072-33.8432L430.848 355.9424a39.168 39.168 0 0 0-19.5584-5.3248z"
    fill="#FFE576"
    p-id="17293"
  ></path>
</svg>