<svg
  t="1733688862413"
  class="icon"
  viewBox="0 0 1024 1024"
  version="1.1"
  xmlns="http://www.w3.org/2000/svg"
  p-id="5113"
  width="256"
  height="256"
>
  <path
    d="M361.51501468 14.8973037h300.95282934c99.83193422 0 149.73076063 0 203.43499313 16.97005811a211.38863628 211.38863628 0 0 1 126.21265974 126.16123581c16.98719941 53.82422286 16.98719941 103.70590674 16.98719941 203.46927576v301.00425324c0 99.76336899 0 149.6450529-16.98719941 203.46927576a211.38863628 211.38863628 0 0 1-126.21265974 126.16123581c-53.7042325 16.9700581-103.60305891 16.9700581-203.43499313 16.97005811H361.51501468c-99.79765161 0-149.71361932 0-203.43499314-16.97005811a211.37149497 211.37149497 0 0 1-126.19551843-126.16123581c-16.98719941-53.82422286-16.98719941-103.70590674-16.98719941-203.46927576V361.49787338c0-99.76336899 0-149.6450529 16.98719941-203.46927576a211.37149497 211.37149497 0 0 1 126.19551843-126.16123581c53.73851511-16.9700581 103.63734153-16.9700581 203.43499314-16.97005811"
    fill="#266A99"
    p-id="5114"
  ></path>
  <path
    d="M494.85852763 589.13662566A113.9736491 113.9736491 0 0 0 607.04946403 473.43168778v-154.27325133a112.25950162 112.25950162 0 1 0-224.39901411 0v154.27325133a113.9736491 113.9736491 0 0 0 112.20807771 115.70493788z m205.69766722-105.93429944v-0.17141425a28.06059039 28.06059039 0 1 0-56.10403824 0 149.6621942 149.6621942 0 1 1-299.20439927 0 28.06059039 28.06059039 0 1 0-56.10403824 0v0.17141425a209.77733783 209.77733783 0 0 0 177.65421815 209.81162166v69.59437749h-93.48958952a28.98622934 28.98622934 0 0 0 0 57.93817607h243.1003598a28.98622934 28.98622934 0 0 0 0-57.93817607h-93.50673082v-69.59437749A209.76019653 209.76019653 0 0 0 700.55619485 483.20232622z"
    fill="#FFFFFF"
    p-id="5115"
  ></path>
</svg>