<svg
  t="1733500259700"
  class="icon"
  viewBox="0 0 1024 1024"
  version="1.1"
  xmlns="http://www.w3.org/2000/svg"
  p-id="8490"
  width="256"
  height="256"
>
  <path
    d="M0 102.4m51.2 0l921.6 0q51.2 0 51.2 51.2l0 716.8q0 51.2-51.2 51.2l-921.6 0q-51.2 0-51.2-51.2l0-716.8q0-51.2 51.2-51.2Z"
    p-id="8491"
  ></path>
  <path
    d="M485.98016 880.64H67.51232c-19.456 0-33.93536-16.384-22.528-32.5632 9.1136-13.0048 193.0752-272.1792 208.81408-294.2976a29.1328 29.1328 0 0 1 45.33248 0c11.54048 15.872 196.44416 276.1728 209.28512 295.0144 9.40032 13.7216-1.00352 31.8464-22.43584 31.8464z"
    fill="#EBBA50"
    p-id="8492"
  ></path>
  <path
    d="M941.74208 880.64H277.6576c-30.8736 0-53.84192-22.3232-35.77856-44.4416 14.45888-17.7152 306.40128-371.5072 331.37664-401.7152 16.384-19.8656 55.51104-19.5584 71.936 0 18.30912 21.7088 311.74656 376.9344 332.12416 402.6368C992.256 855.9616 975.74912 880.64 941.74208 880.64z"
    fill="#EBBA50"
    p-id="8493"
  ></path>
  <path
    d="M204.8 307.2m-81.92 0a81.92 81.92 0 1 0 163.84 0 81.92 81.92 0 1 0-163.84 0Z"
    fill="#EBBA50"
    p-id="8494"
  ></path>
</svg><svg
  t="1733500259700"
  class="icon"
  viewBox="0 0 1024 1024"
  version="1.1"
  xmlns="http://www.w3.org/2000/svg"
  p-id="8490"
  width="256"
  height="256"
>
  <path
    d="M0 102.4m51.2 0l921.6 0q51.2 0 51.2 51.2l0 716.8q0 51.2-51.2 51.2l-921.6 0q-51.2 0-51.2-51.2l0-716.8q0-51.2 51.2-51.2Z"
    p-id="8491"
  ></path>
  <path
    d="M485.98016 880.64H67.51232c-19.456 0-33.93536-16.384-22.528-32.5632 9.1136-13.0048 193.0752-272.1792 208.81408-294.2976a29.1328 29.1328 0 0 1 45.33248 0c11.54048 15.872 196.44416 276.1728 209.28512 295.0144 9.40032 13.7216-1.00352 31.8464-22.43584 31.8464z"
    fill="#EBBA50"
    p-id="8492"
  ></path>
  <path
    d="M941.74208 880.64H277.6576c-30.8736 0-53.84192-22.3232-35.77856-44.4416 14.45888-17.7152 306.40128-371.5072 331.37664-401.7152 16.384-19.8656 55.51104-19.5584 71.936 0 18.30912 21.7088 311.74656 376.9344 332.12416 402.6368C992.256 855.9616 975.74912 880.64 941.74208 880.64z"
    fill="#EBBA50"
    p-id="8493"
  ></path>
  <path
    d="M204.8 307.2m-81.92 0a81.92 81.92 0 1 0 163.84 0 81.92 81.92 0 1 0-163.84 0Z"
    fill="#EBBA50"
    p-id="8494"
  ></path>
</svg>