<svg
  t="1733385302084"
  class="icon"
  viewBox="0 0 1024 1024"
  version="1.1"
  xmlns="http://www.w3.org/2000/svg"
  p-id="5423"
  width="200"
  height="200"
>
  <path
    d="M824.32 99.84H168.96c-33.28-2.56-61.44 25.6-64 58.88v619.52C102.4 814.08 130.56 844.8 166.4 844.8h663.04c35.84-2.56 64-30.72 64-66.56V166.4c-2.56-35.84-33.28-64-69.12-66.56z"
    fill="#FFC843"
    p-id="5424"
  ></path>
  <path
    d="M893.44 358.4v417.28c0 38.4-30.72 66.56-66.56 66.56H171.52c-15.36 0-30.72-5.12-43.52-15.36l-28.16 38.4c-5.12 2.56-10.24 7.68-12.8 12.8-7.68 15.36 0 30.72 12.8 38.4 7.68 5.12 17.92 7.68 28.16 7.68 0 0 801.28 0 808.96-7.68V396.8c-10.24-25.6-25.6-35.84-43.52-38.4z"
    fill="#05B86F"
    p-id="5425"
  ></path>
  <path
    d="M263.68 427.52h5.12c51.2-2.56 89.6-46.08 87.04-97.28 0-51.2-40.96-94.72-94.72-97.28-51.2 0-94.72 43.52-94.72 94.72 0 56.32 43.52 99.84 97.28 99.84zM171.52 844.8h655.36c38.4 0 66.56-30.72 66.56-66.56V358.4c-35.84-5.12-74.24 33.28-84.48 43.52L512 714.24l-166.4-110.08c-17.92-10.24-40.96-5.12-58.88 7.68L128 832c12.8 7.68 28.16 12.8 43.52 12.8z"
    fill="#05901E"
    p-id="5426"
  ></path>
</svg>